<svg width="18" height="18" viewBox="0 0 18 18" fill="none" xmlns="http://www.w3.org/2000/svg">
<g id="add-circle">
<path id="Vector" fill-rule="evenodd" clip-rule="evenodd" d="M9 0.75C13.5563 0.75 17.25 4.44365 17.25 9C17.25 13.5563 13.5563 17.25 9 17.25C4.44365 17.25 0.75 13.5563 0.75 9C0.75 4.44365 4.44365 0.75 9 0.75ZM9 2.25C5.27208 2.25 2.25 5.27208 2.25 9C2.25 12.7279 5.27208 15.75 9 15.75C12.7279 15.75 15.75 12.7279 15.75 9C15.75 5.27208 12.7279 2.25 9 2.25Z" fill="#242127"/>
<path id="Vector_2" d="M12.4037 8.30738H9.69262L9.69262 5.59631C9.69262 5.40505 9.53757 5.25 9.34631 5.25L8.65369 5.25C8.46243 5.25 8.30738 5.40505 8.30738 5.59631V8.30738H5.59631C5.40505 8.30738 5.25 8.46243 5.25 8.65369V9.34631C5.25 9.53757 5.40505 9.69262 5.59631 9.69262H8.30738V12.4037C8.30738 12.595 8.46243 12.75 8.65369 12.75L9.34631 12.75C9.53757 12.75 9.69262 12.595 9.69262 12.4037L9.69262 9.69262L12.4037 9.69262C12.595 9.69262 12.75 9.53757 12.75 9.34631V8.65369C12.75 8.46243 12.595 8.30738 12.4037 8.30738Z" fill="#242127"/>
</g>
</svg>
