<svg width="24" height="24" viewBox="0 0 24 24" fill="none" xmlns="http://www.w3.org/2000/svg">
<g id="andelsbank">
<path id="Vector" fill-rule="evenodd" clip-rule="evenodd" d="M11.9827 1.5C13.7528 1.5 15.4616 1.94078 16.984 2.77006C17.7636 3.19466 18.4863 3.71705 19.1347 4.32341C19.5381 4.70063 19.5593 5.33344 19.1821 5.73683C18.8049 6.14022 18.1721 6.16144 17.7687 5.78422C17.2434 5.29302 16.6582 4.87001 16.0274 4.52641C14.7966 3.85602 13.4165 3.5 11.9827 3.5C7.29824 3.5 3.5 7.30517 3.5 12C3.5 16.6948 7.29824 20.5 11.9827 20.5C13.4203 20.5 14.8383 20.1592 16.074 19.5353C16.7307 19.2037 17.3225 18.7985 17.8242 18.3385C18.2313 17.9653 18.8639 17.9928 19.2371 18.3999C19.6103 18.807 19.5829 19.4395 19.1758 19.8128C18.5367 20.3986 17.7931 20.9078 16.9754 21.3206C15.4615 22.085 13.7348 22.5 11.9827 22.5C6.19285 22.5 1.5 17.7986 1.5 12C1.5 6.20142 6.19285 1.5 11.9827 1.5ZM21.111 6.92216C21.6288 6.71738 22.2142 6.97497 22.4129 7.4951C22.9546 8.9126 23.2366 10.4345 23.2366 11.9963C23.2366 13.5581 22.9546 15.08 22.4129 16.4975C22.2142 17.0176 21.6288 17.2752 21.111 17.0704L10.6322 12.9262C9.78926 12.5928 9.78926 11.3998 10.6322 11.0664L21.111 6.92216ZM20.8598 9.17225L13.7191 11.9963L20.8598 14.8203C21.1084 13.9131 21.2366 12.9648 21.2366 11.9963C21.2366 11.0278 21.1084 10.0795 20.8598 9.17225Z" fill="#fff"/>
</g>
</svg>
