<svg width="12" height="12" viewBox="0 0 12 12" fill="none" xmlns="http://www.w3.org/2000/svg">
<g id="arrow-backward-12">
<path id="Vector" fill-rule="evenodd" clip-rule="evenodd" d="M4.24259 2.3061C4.23962 2.30904 4.23667 2.31199 4.23374 2.31496L1.28848 5.29732C0.903837 5.68681 0.903837 6.31317 1.28848 6.70266L4.23374 9.68502C4.62181 10.078 5.25497 10.0819 5.64793 9.69388C5.6509 9.69094 5.65385 9.68799 5.65678 9.68502L5.70157 9.63967C6.08621 9.25018 6.08621 8.62382 5.70157 8.23434L4.48303 6.99999L10.995 6.99999C11.5473 6.99999 11.995 6.55228 11.995 5.99999C11.995 5.44771 11.5473 4.99999 10.995 4.99999L4.48203 4.99999L5.70157 3.76565C6.08621 3.37616 6.08621 2.7498 5.70157 2.36031L5.65678 2.31496C5.26871 1.922 4.63555 1.91803 4.24259 2.3061Z" fill="#fff"/>
</g>
</svg>
