<svg width="16" height="16" viewBox="0 0 16 16" fill="none" xmlns="http://www.w3.org/2000/svg">
<g id="close">
<path id="Vector" fill-rule="evenodd" clip-rule="evenodd" d="M7.99935 6.58306L3.43586 2.01957C3.2406 1.82431 2.92402 1.82431 2.72875 2.01957L2.01957 2.72875C1.82431 2.92402 1.82431 3.2406 2.01957 3.43586L6.58306 7.99935L2.01957 12.5628C1.82431 12.7581 1.82431 13.0747 2.01957 13.2699L2.72875 13.9791C2.92402 14.1744 3.2406 14.1744 3.43586 13.9791L7.99935 9.41564L12.5628 13.9791C12.7581 14.1744 13.0747 14.1744 13.2699 13.9791L13.9791 13.2699C14.1744 13.0747 14.1744 12.7581 13.9791 12.5628L9.41564 7.99935L13.9791 3.43586C14.1744 3.2406 14.1744 2.92402 13.9791 2.72875L13.2699 2.01957C13.0747 1.82431 12.7581 1.82431 12.5628 2.01957L7.99935 6.58306Z" fill="white"/>
</g>
</svg>
