<svg width="24" height="24" viewBox="0 0 24 24" fill="none" xmlns="http://www.w3.org/2000/svg">
<g id="cloud">
<path id="Vector" fill-rule="evenodd" clip-rule="evenodd" d="M19 17C20.66 17 22 15.66 22 14C22 12.34 20.66 11 19 11H17.5V10.5C17.5 7.46 15.04 5 12 5C9.48 5 7.37 6.69 6.71 9H6C3.79 9 2 10.79 2 13C2 15.21 3.79 17 6 17H19ZM6 19C2.69 19 0 16.31 0 13C0 9.91 2.34 7.36 5.35 7.04C6.6 4.64 9.11 3 12 3C15.64 3 18.67 5.59 19.35 9.04C21.95 9.22 24 11.36 24 14C24 16.76 21.76 19 19 19H6Z" fill="#fff"/>
</g>
</svg>
