<svg width="24" height="24" viewBox="0 0 24 24" fill="none" xmlns="http://www.w3.org/2000/svg">
<g id="crown">
<path id="Rectangle 98" d="M4 20C4 19.4477 4.44772 19 5 19H19C19.5523 19 20 19.4477 20 20C20 20.5523 19.5523 21 19 21H5C4.44772 21 4 20.5523 4 20Z" fill="#242127"/>
<path id="Subtract" fill-rule="evenodd" clip-rule="evenodd" d="M20.0942 17.1047L20.8089 10.3155C20.8916 9.52995 20.0737 8.96315 19.3672 9.3164L16 11L12.7809 6.97607C12.3805 6.47567 11.6194 6.47567 11.2191 6.97607L7.99999 11L4.63282 9.3164C3.92631 8.96315 3.10841 9.52995 3.1911 10.3155L3.90575 17.1047C3.95932 17.6136 4.38849 18 4.90025 18H19.0997C19.6115 18 20.0407 17.6136 20.0942 17.1047ZM13.5 14.5C13.5 15.345 12.845 16.06 12 16.06C11.155 16.06 10.5 15.345 10.5 14.5C10.5 13.655 11.155 13 12 13C12.845 13 13.5 13.655 13.5 14.5Z" fill="#242127"/>
<path id="Vector" d="M21.5 8C22.3284 8 23 7.32843 23 6.5C23 5.67157 22.3284 5 21.5 5C20.6716 5 20 5.67157 20 6.5C20 7.32843 20.6716 8 21.5 8Z" fill="#242127"/>
<path id="Vector_2" d="M12 5C12.8284 5 13.5 4.32843 13.5 3.5C13.5 2.67157 12.8284 2 12 2C11.1716 2 10.5 2.67157 10.5 3.5C10.5 4.32843 11.1716 5 12 5Z" fill="#242127"/>
<path id="Vector_3" d="M2.5 8C3.32843 8 4 7.32843 4 6.5C4 5.67157 3.32843 5 2.5 5C1.67157 5 1 5.67157 1 6.5C1 7.32843 1.67157 8 2.5 8Z" fill="#242127"/>
</g>
</svg>
