<svg width="24" height="24" viewBox="0 0 24 24" fill="none" xmlns="http://www.w3.org/2000/svg">
<g id="danger-triangle">
<path id="Vector" fill-rule="evenodd" clip-rule="evenodd" d="M12.7442 2.72096C12.9767 2.85385 13.1694 3.04657 13.3023 3.27912L22.7175 19.7558C23.1286 20.475 22.8787 21.3913 22.1594 21.8023C21.9327 21.9319 21.6762 22 21.4152 22H2.58472C1.75629 22 1.08472 21.3284 1.08472 20.5C1.08472 20.2389 1.15284 19.9824 1.28235 19.7558L10.6976 3.27912C11.1086 2.55984 12.0249 2.30995 12.7442 2.72096ZM12.2404 5.10144C11.9982 4.96866 11.6943 5.0573 11.5615 5.29943L3.90598 19.2596C3.86557 19.3333 3.84439 19.4159 3.84439 19.5C3.84439 19.7761 4.06825 20 4.34439 20H19.6555C19.7395 20 19.8222 19.9788 19.8959 19.9384C20.138 19.8056 20.2267 19.5017 20.0939 19.2596L12.4384 5.29943C12.3926 5.21592 12.3239 5.14723 12.2404 5.10144ZM12.501 7.99998C13.0573 7.99998 13.4999 8.44901 13.4999 9.00291V13.9971C13.4999 14.5621 13.0527 15 12.501 15H11.4989C10.9426 15 10.4999 14.551 10.4999 13.9971V9.00291C10.4999 8.43786 10.9472 7.99998 11.4989 7.99998H12.501ZM12.501 19C13.0527 19 13.4999 18.5573 13.4999 18.001V16.9989C13.4999 16.4472 13.0573 16 12.501 16H11.4989C10.9472 16 10.4999 16.4426 10.4999 16.9989V18.001C10.4999 18.5527 10.9426 19 11.4989 19H12.501Z" fill="#fff"/>
</g>
</svg>
