<svg width="18" height="18" viewBox="0 0 18 18" fill="none" xmlns="http://www.w3.org/2000/svg">
<g id="delete-circle">
<g id="Vector">
<path fill-rule="evenodd" clip-rule="evenodd" d="M9 0.75C13.5563 0.75 17.25 4.44365 17.25 9C17.25 13.5563 13.5563 17.25 9 17.25C4.44365 17.25 0.75 13.5563 0.75 9C0.75 4.44365 4.44365 0.75 9 0.75ZM9 2.25C5.27208 2.25 2.25 5.27208 2.25 9C2.25 12.7279 5.27208 15.75 9 15.75C12.7279 15.75 15.75 12.7279 15.75 9C15.75 5.27208 12.7279 2.25 9 2.25Z" fill="#82052F"/>
<path d="M12.4037 8.25C8.26928 8.25 9.35053 8.25 5.59631 8.25C5.40505 8.25 5.25 8.40505 5.25 8.59631V9.40369C5.25 9.59495 5.40505 9.75 5.59631 9.75C9.73072 9.75 8.64947 9.75 12.4037 9.75C12.5949 9.75 12.75 9.59495 12.75 9.40369V8.59631C12.75 8.40505 12.595 8.25 12.4037 8.25Z" fill="#82052F"/>
</g>
</g>
</svg>
