<svg width="16" height="16" viewBox="0 0 16 16" fill="none" xmlns="http://www.w3.org/2000/svg">
<g id="delete">
<path id="Vector" fill-rule="evenodd" clip-rule="evenodd" d="M9.46699 0C10.5331 0 11.3337 0.437096 11.3337 1.41667V2H13.3268C13.3309 1.99996 13.335 1.99996 13.3392 2H14.667C15.0352 2 15.3337 2.29848 15.3337 2.66667C15.3337 3.03486 15.0352 3.33333 14.667 3.33333H13.9542L13.2739 12.816C13.1377 14.166 11.9756 15.3333 10.667 15.3333H5.37135C4.06277 15.3333 2.90068 14.166 2.76297 12.7992L2.04873 3.33333H1.33366C0.965469 3.33333 0.666992 3.03486 0.666992 2.66667C0.666992 2.29848 0.965469 2 1.33366 2H2.66121C2.66555 1.99996 2.66987 1.99996 2.67419 2H4.66699V1.41667C4.66699 0.437096 5.46757 0 6.53366 0H9.46699ZM12.6175 3.33333H3.38584L4.09104 12.6821C4.16139 13.3792 4.77942 14 5.37135 14H10.667C11.2589 14 11.877 13.3792 11.9456 12.7014L12.6175 3.33333ZM8.50033 5.33333V11.3333H7.50033V5.33333H8.50033ZM10.667 5.33333V11.3333H9.66699V5.33333H10.667ZM6.33366 5.33333V11.3333H5.33366V5.33333H6.33366ZM9.46699 1.33333H6.53366C6.10607 1.33333 6.00033 1.39107 6.00033 1.41667V2H10.0003V1.41667C10.0003 1.39107 9.89458 1.33333 9.46699 1.33333Z" fill="#E8E6EB"/>
</g>
</svg>
