<svg width="26" height="26" viewBox="0 0 26 26" fill="none" xmlns="http://www.w3.org/2000/svg">
<g id="Icon">
<g id="Vector">
<path fill-rule="evenodd" clip-rule="evenodd" d="M20.5057 2.28516C22.2745 2.28516 23.7137 3.72146 23.7137 5.49323V20.5057C23.7137 22.2745 22.2774 23.7137 20.5057 23.7137H5.49323C3.72442 23.7137 2.28516 22.2774 2.28516 20.5057V5.49323C2.28516 3.72442 3.72146 2.28516 5.49323 2.28516H20.5057ZM20.5057 4.42801H5.49323C4.90625 4.42801 4.42801 4.90656 4.42801 5.49323V20.5057C4.42801 21.0926 4.90656 21.5709 5.49323 21.5709H20.5057C21.0926 21.5709 21.5709 21.0923 21.5709 20.5057V5.49323C21.5709 4.90625 21.0923 4.42801 20.5057 4.42801ZM17.2852 8.17801C18.4697 8.17801 19.428 9.13716 19.428 10.3209C19.428 11.5046 18.4697 12.4637 17.2852 12.4637C16.1006 12.4637 15.1423 11.5046 15.1423 10.3209C15.1423 9.13716 16.1006 8.17801 17.2852 8.17801ZM8.71373 8.17801C9.8983 8.17801 10.8566 9.13716 10.8566 10.3209C10.8566 11.5046 9.8983 12.4637 8.71373 12.4637C7.52916 12.4637 6.57087 11.5046 6.57087 10.3209C6.57087 9.13716 7.52916 8.17801 8.71373 8.17801Z" fill="#633300"/>
<path d="M16.4919 17.8936C15.1423 18.9254 10.8565 18.9254 9.60453 17.8936C9.18558 17.5484 8.98185 16.8985 9.31144 16.407C9.64102 15.9156 10.2554 15.7928 10.798 16.1139C11.928 16.7826 14.0708 16.7826 15.2984 16.1139C15.8727 15.8011 16.4554 15.9156 16.785 16.407C17.1146 16.8985 16.9378 17.5528 16.4919 17.8936Z" fill="#633300"/>
</g>
</g>
</svg>
