<svg width="26" height="26" viewBox="0 0 26 26" fill="none" xmlns="http://www.w3.org/2000/svg">
<g id="Icon">
<path id="Vector" fill-rule="evenodd" clip-rule="evenodd" d="M20.5057 2.28516C22.2745 2.28516 23.7137 3.72146 23.7137 5.49323V20.5057C23.7137 22.2745 22.2774 23.7137 20.5057 23.7137H5.49323C3.72442 23.7137 2.28516 22.2774 2.28516 20.5057V5.49323C2.28516 3.72442 3.72146 2.28516 5.49323 2.28516H20.5057ZM20.5057 4.42801H5.49323C4.90625 4.42801 4.42801 4.90656 4.42801 5.49323V20.5057C4.42801 21.0926 4.90656 21.5709 5.49323 21.5709H20.5057C21.0926 21.5709 21.5709 21.0923 21.5709 20.5057V5.49323C21.5709 4.90625 21.0923 4.42801 20.5057 4.42801ZM9.60457 16.7098C10.8566 15.678 15.1423 15.678 16.492 16.7098C16.9378 17.0506 17.1146 17.705 16.7851 18.1964C16.4555 18.6879 15.8728 18.8024 15.2984 18.4895C14.0709 17.8209 11.928 17.8209 10.7981 18.4895C10.2555 18.8106 9.64106 18.6879 9.31148 18.1964C8.9819 17.705 9.18562 17.0551 9.60457 16.7098ZM17.2852 8.17801C18.4697 8.17801 19.428 9.13716 19.428 10.3209C19.428 11.5046 18.4697 12.4637 17.2852 12.4637C16.1006 12.4637 15.1423 11.5046 15.1423 10.3209C15.1423 9.13716 16.1006 8.17801 17.2852 8.17801ZM8.71373 8.17801C9.8983 8.17801 10.8566 9.13716 10.8566 10.3209C10.8566 11.5046 9.8983 12.4637 8.71373 12.4637C7.52916 12.4637 6.57087 11.5046 6.57087 10.3209C6.57087 9.13716 7.52916 8.17801 8.71373 8.17801Z" fill="#82052F"/>
</g>
</svg>
