<svg width="26" height="26" viewBox="0 0 26 26" fill="none" xmlns="http://www.w3.org/2000/svg">
<g id="Icon">
<path id="Vector" fill-rule="evenodd" clip-rule="evenodd" d="M20.5076 2.28711C22.2764 2.28711 23.7157 3.72341 23.7157 5.49518V20.5076C23.7157 22.2764 22.2794 23.7157 20.5076 23.7157H5.49518C3.72637 23.7157 2.28711 22.2794 2.28711 20.5076V5.49518C2.28711 3.72637 3.72341 2.28711 5.49518 2.28711H20.5076ZM20.5076 4.42997H5.49518C4.90821 4.42997 4.42997 4.90851 4.42997 5.49518V20.5076C4.42997 21.0946 4.90851 21.5728 5.49518 21.5728H20.5076C21.0946 21.5728 21.5728 21.0943 21.5728 20.5076V5.49518C21.5728 4.90821 21.0943 4.42997 20.5076 4.42997ZM19.2879 11.9001C18.8805 12.1419 18.3571 12.055 18.0537 11.7066L17.8982 11.5019C17.6998 11.2734 17.3977 11.136 17.073 11.136C16.7483 11.136 16.4462 11.2734 16.2478 11.5019L16.0923 11.7066C15.7888 12.055 15.2655 12.1419 14.8581 11.9001C14.3969 11.6265 14.2526 11.0324 14.5481 10.5842C15.0963 9.75281 16.0502 9.25139 17.073 9.25139C18.0957 9.25139 19.0497 9.75281 19.5978 10.5842C19.8933 11.0324 19.749 11.6265 19.2879 11.9001ZM9.91081 11.7066C10.2142 12.055 10.7376 12.1419 11.145 11.9001C11.6062 11.6265 11.7504 11.0324 11.4549 10.5842C10.9068 9.75281 9.95283 9.25139 8.93011 9.25139C7.90739 9.25139 6.95342 9.75281 6.40527 10.5842C6.10979 11.0324 6.25406 11.6265 6.71523 11.9001C7.12263 12.1419 7.64597 12.055 7.94942 11.7066L8.10491 11.5019C8.3033 11.2734 8.60542 11.136 8.93011 11.136C9.25481 11.136 9.55692 11.2734 9.75532 11.5019L9.91081 11.7066ZM9.07282 15.1443H16.93C17.1272 15.1443 17.2832 15.3033 17.2496 15.4977C17.105 16.3328 16.4037 18.3585 13.0014 18.3585C9.5991 18.3585 8.89778 16.3328 8.75322 15.4977C8.71957 15.3033 8.87558 15.1443 9.07282 15.1443Z" fill="#004A18"/>
</g>
</svg>
