<svg width="16" height="16" viewBox="0 0 16 16" fill="none" xmlns="http://www.w3.org/2000/svg">
<g id="fyll-ut">
<path id="Vector" fill-rule="evenodd" clip-rule="evenodd" d="M8.23559 4.32387L0.862254 11.6972C0.73723 11.8222 0.666992 11.9918 0.666992 12.1686V14.6686C0.666992 15.0368 0.965469 15.3353 1.33366 15.3353H3.83366C4.01047 15.3353 4.18004 15.265 4.30506 15.14L11.6784 7.76668C11.9387 7.50633 11.9387 7.08422 11.6784 6.82387L9.1784 4.32387C8.91805 4.06352 8.49594 4.06352 8.23559 4.32387ZM8.70699 5.73828L10.2637 7.29494L3.55699 14.0016H1.99966V12.4449L8.70699 5.73828ZM11.2579 1.36292C11.7783 0.842569 12.6204 0.842569 13.1407 1.36292L14.7007 2.92292C15.2211 3.44327 15.2211 4.28538 14.7007 4.80573L13.4807 6.02573C13.2204 6.28608 12.7983 6.28608 12.5379 6.02573L10.0379 3.52573C9.77757 3.26538 9.77757 2.84327 10.0379 2.58292L11.2579 1.36292Z" fill="#E8E6EB"/>
</g>
</svg>
