<svg width="24" height="24" viewBox="0 0 24 24" fill="none" xmlns="http://www.w3.org/2000/svg">
<g id="heart-fill">
<path id="Vector" fill-rule="evenodd" clip-rule="evenodd" d="M23 8.60401C23 8.8988 22.9814 9.19592 22.9447 9.49512C22.5961 12.34 20.6726 15.2545 17.6989 18.1603C16.5741 19.2594 15.3724 20.2815 14.1707 21.2022C13.7499 21.5247 13.3585 21.8118 13.0064 22.0604C12.7927 22.2113 12.6377 22.3169 12.5513 22.374C12.2378 22.5812 11.8346 22.5951 11.5075 22.41C11.4192 22.3601 11.2624 22.2678 11.0468 22.1353C10.6923 21.9175 10.2987 21.6638 9.87552 21.3762C8.66746 20.5555 7.45945 19.6249 6.32833 18.5994C3.0143 15.5949 1 12.3957 1 9.06555C1 2.18294 8.93493 0.506134 12.0064 5.13994C15.0789 0.582375 23 2.04571 23 8.60401Z" fill="#242127"/>
</g>
</svg>
