<svg width="24" height="24" viewBox="0 0 24 24" fill="none" xmlns="http://www.w3.org/2000/svg">
<g id="link">
<path id="Vector" d="M11.1056 20.1771C10.0803 21.2024 8.86648 21.7151 7.46405 21.7151C6.06162 21.7151 4.84775 21.2024 3.82245 20.1771C2.79714 19.1518 2.28449 17.938 2.28449 16.5355C2.28449 15.1331 2.79714 13.9192 3.82245 12.8939L6.82002 9.89635C6.9968 9.71957 7.20009 9.63413 7.4299 9.64002C7.65971 9.64591 7.85711 9.73135 8.02211 9.89634C8.19888 10.0731 8.28727 10.2735 8.28727 10.4974C8.28727 10.7213 8.19888 10.9217 8.02211 11.0984L5.02453 14.096C4.32921 14.7913 3.98155 15.6045 3.98155 16.5355C3.98155 17.4665 4.32921 18.2797 5.02453 18.975C5.71985 19.6704 6.53302 20.018 7.46405 20.018C8.39507 20.018 9.20824 19.6704 9.90357 18.975L12.9011 15.9775C13.0779 15.8007 13.2812 15.7152 13.511 15.7211C13.7408 15.727 13.9382 15.8125 14.1032 15.9775C14.28 16.1542 14.3684 16.3546 14.3684 16.5785C14.3684 16.8024 14.28 17.0028 14.1032 17.1795L11.1056 20.1771ZM10.2848 14.8107C10.1316 14.9639 9.94897 15.0405 9.73684 15.0405C9.52471 15.0405 9.34204 14.9639 9.18883 14.8107C9.02384 14.6457 8.94429 14.4601 8.95018 14.2539C8.95608 14.0477 9.03563 13.8679 9.18883 13.7147L13.7143 9.18924C13.8675 9.03603 14.0502 8.95943 14.2623 8.95943C14.4745 8.95943 14.6571 9.03603 14.8103 9.18924C14.9753 9.35423 15.0549 9.53985 15.049 9.74609C15.0431 9.95232 14.9635 10.132 14.8103 10.2853L10.2848 14.8107ZM17.1791 14.1036C17.0024 14.2804 16.7991 14.3658 16.5693 14.36C16.3394 14.3541 16.142 14.2686 15.9771 14.1036C15.8003 13.9269 15.7119 13.7265 15.7119 13.5026C15.7119 13.2787 15.8003 13.0783 15.9771 12.9015L18.9746 9.90397C19.67 9.20865 20.0176 8.39548 20.0176 7.46445C20.0176 6.53343 19.67 5.72026 18.9746 5.02493C18.2793 4.32961 17.4661 3.98195 16.5351 3.98195C15.6041 3.98195 14.7909 4.32961 14.0956 5.02493L11.098 8.02251C10.9212 8.19929 10.718 8.28473 10.4881 8.27884C10.2583 8.27295 10.0609 8.1875 9.89594 8.02251C9.71916 7.84574 9.63077 7.64539 9.63077 7.42147C9.63077 7.19755 9.71916 6.99721 9.89594 6.82043L12.8935 3.82285C13.9188 2.79755 15.1327 2.2849 16.5351 2.2849C17.9375 2.2849 19.1514 2.79755 20.1767 3.82285C21.202 4.84816 21.7147 6.06202 21.7147 7.46445C21.7147 8.86688 21.202 10.0807 20.1767 11.1061L17.1791 14.1036Z" fill="#fff"/>
</g>
</svg>
