<svg width="24" height="24" viewBox="0 0 24 24" fill="none" xmlns="http://www.w3.org/2000/svg">
<g id="logout">
<g id="Vector">
<path d="M18.2648 8.80011L18.256 8.79122C17.863 8.40143 17.2299 8.40541 16.8418 8.80011L16.797 8.84567C16.4124 9.23688 16.4124 9.86602 16.797 10.2572L18.0155 11.4967L9.50354 11.497C8.95125 11.497 8.50354 11.9467 8.50354 12.5015C8.50354 13.0562 8.95125 13.5059 9.50354 13.5059L18.0155 13.5055L16.797 14.7457C16.4123 15.1369 16.4124 15.766 16.797 16.1573L16.8506 16.2117C17.2436 16.6015 17.8768 16.5975 18.2648 16.2028L21.2101 13.2072C21.5947 12.816 21.5947 12.1869 21.2101 11.7957L18.2648 8.80011Z" fill="#C7D7FF"/>
<path d="M10.0014 2.50146C10.2776 2.50146 10.5014 2.72532 10.5014 3.00146L10.5014 4.00146C10.5014 4.27761 10.2776 4.50146 10.0014 4.50146L5.49564 4.50146C4.94779 4.50146 4.50143 4.94811 4.50143 5.49567L4.50143 19.5073C4.50143 20.0551 4.94808 20.5015 5.49564 20.5015L10.0014 20.5015C10.2776 20.5015 10.5014 20.7253 10.5014 21.0015L10.5014 22.0015C10.5014 22.2776 10.2776 22.5015 10.0014 22.5015L5.49564 22.5015C3.84474 22.5015 2.50143 21.1609 2.50143 19.5073L2.50143 5.49567C2.50143 3.84478 3.84198 2.50146 5.49564 2.50146L10.0014 2.50146Z" fill="#C7D7FF"/>
</g>
</g>
</svg>
