<svg width="24" height="24" viewBox="0 0 24 24" fill="none" xmlns="http://www.w3.org/2000/svg">
<g id="prize">
<path id="Vector" fill-rule="evenodd" clip-rule="evenodd" d="M7.00003 0.999997H16.9983C18.1029 0.999988 18.9983 1.89542 18.9983 3L18.9977 3.00532L19.9153 3.01544C22.2283 3.01538 24.0116 4.72017 23.6107 6.95758C23.6087 7.00122 23.5756 7.22938 23.5351 7.47488C23.4576 7.94488 23.3662 8.3919 23.2614 8.80434C22.9852 9.89143 22.6564 10.6313 22.1416 11.1461C21.6129 11.6748 20.7847 12.1851 19.8439 12.5211C19.7689 12.5479 19.693 12.5715 19.6155 12.5925C19.4246 12.6443 19.2803 12.6701 18.9935 12.7123C18.7415 12.7493 18.646 12.7666 18.5357 12.7981C18.3357 12.8553 18.1326 12.8473 17.9489 12.7868C16.9076 14.4176 15.1703 15.5867 13.1425 15.9099L14.5347 17.9993L16.4904 18C17.87 18 19 19.121 19 20.5C19 21.8892 17.8686 23 16.4904 23H7.50968C6.13002 23 5.00003 21.879 5.00003 20.5C5.00003 19.1108 6.13145 18 7.50968 18L9.46469 17.9993L10.8586 15.9098C8.82905 15.5858 7.08867 14.4123 6.0457 12.7764C5.86701 12.8323 5.66961 12.8383 5.47521 12.7827C5.36495 12.7512 5.26942 12.7339 5.01747 12.6969C4.73059 12.6548 4.58636 12.629 4.39542 12.5772C4.31788 12.5561 4.24202 12.5325 4.16705 12.5057C3.22622 12.1697 2.39798 11.6594 1.86929 11.1307C1.35451 10.616 1.02574 9.87605 0.749496 8.78896C0.644691 8.37652 0.553325 7.9295 0.475782 7.4595C0.435278 7.214 0.40225 6.98584 0.400228 6.9422C-0.000718117 4.70478 1.78264 3 4.10655 3L5.00171 3C4.9991 1.89543 5.89378 0.999248 6.99835 0.998322C6.99891 0.998321 6.99947 0.998321 7.00003 0.999997ZM16.4904 20H7.50968C7.22768 20 7.00003 20.2239 7.00003 20.5C7.00003 20.7681 7.22821 21 7.50968 21H16.4904C16.7724 21 17 20.7761 17 20.5C17 20.2319 16.7719 20 16.4904 20ZM8.08558 3.00232L7.00692 3.00155V9.22347C7.00692 11.8493 9.23884 14 12 14C14.7656 14 16.9931 11.8529 16.9931 9.22409L16.9927 8.32767L16.9925 7.64039L16.9926 4.65785C16.9927 4.55825 16.9927 4.46097 16.9928 4.3661L16.9935 3.57898C16.9936 3.49918 16.9937 3.422 16.9938 3.34753L16.9944 3.00606L16.1258 3.00578C15.5636 3.00559 15.0014 3.0054 14.4452 3.00519L12.8006 3.00457C12.5315 3.00446 12.2654 3.00436 12.0031 3.00425L10.1599 3.00343C10.0466 3.00338 9.93525 3.00332 9.82594 3.00327L8.34307 3.00247C8.255 3.00242 8.16915 3.00237 8.08558 3.00232ZM18.9966 5.00633L18.9958 5.87224C18.9958 5.96225 18.9957 6.05046 18.9956 6.13685L18.9948 7.08661C18.9947 7.15851 18.9947 7.2286 18.9946 7.29688L18.9938 8.3303C18.9937 8.37685 18.9937 8.42158 18.9937 8.4645L18.9931 9.22347C18.9931 9.73657 18.9344 10.2361 18.8231 10.7162C18.9512 10.6954 19.0211 10.6815 19.0918 10.6623C19.1203 10.6546 19.1466 10.6464 19.1712 10.6376C19.8405 10.3986 20.4142 10.0451 20.7274 9.73191C20.9264 9.53294 21.128 9.07912 21.323 8.31178C21.413 7.95772 21.4931 7.56582 21.5618 7.14931C21.5965 6.93877 21.6247 6.74458 21.6319 6.67595C21.8025 5.70929 21.0766 5.01538 19.9044 5.01538L18.9966 5.00633ZM5.00369 4.99932L4.10655 5C2.93429 5 2.20839 5.69391 2.37899 6.66057C2.38626 6.7292 2.41437 6.92339 2.44911 7.13393C2.51782 7.55044 2.59792 7.94233 2.68789 8.2964C2.88288 9.06374 3.08454 9.51756 3.2835 9.71653C3.59669 10.0297 4.17045 10.3832 4.83972 10.6222C4.86435 10.631 4.89063 10.6392 4.91916 10.6469C4.98699 10.6653 5.05407 10.6789 5.1727 10.6976C5.06437 10.2235 5.00692 9.73003 5.00692 9.22347L5.00369 4.99932Z" fill="white"/>
</g>
</svg>
