<svg width="24" height="24" viewBox="0 0 24 24" fill="none" xmlns="http://www.w3.org/2000/svg">
<g id="rekker">
<path id="Vector" fill-rule="evenodd" clip-rule="evenodd" d="M12 16.5C13.3807 16.5 14.5 17.6193 14.5 19C14.5 20.3807 13.3807 21.5 12 21.5C10.6193 21.5 9.5 20.3807 9.5 19C9.5 17.6193 10.6193 16.5 12 16.5ZM5 16.5C6.38071 16.5 7.5 17.6193 7.5 19C7.5 20.3807 6.38071 21.5 5 21.5C3.61929 21.5 2.5 20.3807 2.5 19C2.5 17.6193 3.61929 16.5 5 16.5ZM19 16.5C20.3807 16.5 21.5 17.6193 21.5 19C21.5 20.3807 20.3807 21.5 19 21.5C17.6193 21.5 16.5 20.3807 16.5 19C16.5 17.6193 17.6193 16.5 19 16.5ZM12 9.5C13.3807 9.5 14.5 10.6193 14.5 12C14.5 13.3807 13.3807 14.5 12 14.5C10.6193 14.5 9.5 13.3807 9.5 12C9.5 10.6193 10.6193 9.5 12 9.5ZM5 9.5C6.38071 9.5 7.5 10.6193 7.5 12C7.5 13.3807 6.38071 14.5 5 14.5C3.61929 14.5 2.5 13.3807 2.5 12C2.5 10.6193 3.61929 9.5 5 9.5ZM19 9.5C20.3807 9.5 21.5 10.6193 21.5 12C21.5 13.3807 20.3807 14.5 19 14.5C17.6193 14.5 16.5 13.3807 16.5 12C16.5 10.6193 17.6193 9.5 19 9.5ZM12 2.5C13.3807 2.5 14.5 3.61929 14.5 5C14.5 6.38071 13.3807 7.5 12 7.5C10.6193 7.5 9.5 6.38071 9.5 5C9.5 3.61929 10.6193 2.5 12 2.5ZM5 2.5C6.38071 2.5 7.5 3.61929 7.5 5C7.5 6.38071 6.38071 7.5 5 7.5C3.61929 7.5 2.5 6.38071 2.5 5C2.5 3.61929 3.61929 2.5 5 2.5ZM19 2.5C20.3807 2.5 21.5 3.61929 21.5 5C21.5 6.38071 20.3807 7.5 19 7.5C17.6193 7.5 16.5 6.38071 16.5 5C16.5 3.61929 17.6193 2.5 19 2.5Z" fill="white"/>
</g>
</svg>
