<svg width="24" height="24" viewBox="0 0 24 24" fill="none" xmlns="http://www.w3.org/2000/svg">
<g id="settings">
<path id="Vector" fill-rule="evenodd" clip-rule="evenodd" d="M9.51123 1C9.64731 2.25545 10.7106 3.23253 12.0023 3.23253C13.2937 3.23253 14.3567 2.256 14.4933 1.00107L14.9133 1.10442C16.025 1.40088 17.0692 1.86294 18.0177 2.46258C17.2279 3.44648 17.2894 4.88777 18.2021 5.80046C19.1147 6.71297 20.5557 6.7746 21.5396 5.98535C22.2138 7.05234 22.7139 8.2403 23 9.50936C21.7459 9.64672 20.7702 10.7093 20.7702 12C20.7702 13.2907 21.7459 14.3533 23 14.4906C22.7139 15.7597 22.2138 16.9477 21.5396 18.0147C20.5557 17.2254 19.1147 17.287 18.2021 18.1995C17.2894 19.1122 17.2279 20.5535 18.0177 21.5374C16.9506 22.212 15.7625 22.7125 14.4933 22.9989C14.3567 21.744 13.2937 20.7675 12.0023 20.7675C10.7106 20.7675 9.64731 21.7446 9.51123 23C8.24144 22.714 7.05281 22.2139 5.98525 21.5395L6.09253 21.3959C6.76903 20.4193 6.67234 19.0694 5.80246 18.1995C4.88892 17.286 3.4458 17.2253 2.46179 18.0172C1.78692 16.9497 1.28633 15.761 1 14.4911C2.25636 14.3559 3.23441 13.2923 3.23441 12C3.23441 10.7077 2.25636 9.64412 1 9.50886L1.10332 9.08862C1.39972 7.97632 1.8619 6.93168 2.46179 5.98278L2.60538 6.09012C3.58204 6.76701 4.93242 6.67046 5.80246 5.80046C6.71583 4.88713 6.77676 3.44447 5.98525 2.46052C7.0528 1.78612 8.24144 1.28597 9.51123 1ZM12 6C8.686 6 6 8.686 6 12C6 15.314 8.686 18 12 18C15.3137 18 18 15.314 18 12C18 8.686 15.3137 6 12 6Z" fill="#fff"/>
</g>
</svg>
