<svg width="24" height="24" viewBox="0 0 24 24" fill="none" xmlns="http://www.w3.org/2000/svg">
<g id="sidebar">
<path id="Vector" fill-rule="evenodd" clip-rule="evenodd" d="M22 3C23.1046 3 24 3.89543 24 5V19C24 20.1046 23.1046 21 22 21H2C0.89543 21 0 20.1046 0 19V5C0 3.89543 0.89543 3 2 3H22ZM8 5H3C2.44772 5 2 5.44772 2 6V18C2 18.5523 2.44772 19 3 19H8V5ZM21 5H10V19H21C21.5128 19 21.9355 18.614 21.9933 18.1166L22 18V6C22 5.44772 21.5523 5 21 5ZM6.5 12C6.77614 12 7 12.2239 7 12.5C7 12.7761 6.77614 13 6.5 13H3.5C3.22386 13 3 12.7761 3 12.5C3 12.2239 3.22386 12 3.5 12H6.5ZM6.5 9.5C6.77614 9.5 7 9.72386 7 10C7 10.2761 6.77614 10.5 6.5 10.5H3.5C3.22386 10.5 3 10.2761 3 10C3 9.72386 3.22386 9.5 3.5 9.5H6.5ZM6.5 7C6.77614 7 7 7.22386 7 7.5C7 7.77614 6.77614 8 6.5 8H3.5C3.22386 8 3 7.77614 3 7.5C3 7.22386 3.22386 7 3.5 7H6.5Z" fill="#fff"/>
</g>
</svg>
