<svg width="24" height="24" viewBox="0 0 24 24" fill="none" xmlns="http://www.w3.org/2000/svg">
<g id="spillregnskap">
<path id="Vector" fill-rule="evenodd" clip-rule="evenodd" d="M13.5002 2C14.0524 2 14.5 2.44495 14.5 2.9934V19.0066C14.5 19.5552 14.0563 20 13.5002 20H10.4998C9.94763 20 9.5 19.5551 9.5 19.0066V2.9934C9.5 2.44476 9.94372 2 10.4998 2H13.5002ZM21.0002 7C21.5524 7 22 7.44749 22 7.9985V19.0015C22 19.553 21.5563 20 21.0002 20H17.9998C17.4476 20 17 19.5525 17 19.0015V7.9985C17 7.44704 17.4437 7 17.9998 7H21.0002ZM6.00019 10C6.55237 10 7 10.4557 7 10.9954V19.0046C7 19.5543 6.55628 20 6.00019 20H2.99981C2.44763 20 2 19.5443 2 19.0046V10.9954C2 10.4457 2.44372 10 2.99981 10H6.00019Z" fill="#fff"/>
</g>
</svg>
