<svg width="24" height="24" viewBox="0 0 24 24" fill="none" xmlns="http://www.w3.org/2000/svg">
<g id="star">
<path id="Vector" fill-rule="evenodd" clip-rule="evenodd" d="M7.15563 21.5806C5.7495 22.365 4.47886 21.4506 4.79484 19.8658L5.87595 14.4433L1.80256 10.6892C0.616406 9.59598 1.09758 8.10525 2.70401 7.91543L8.21631 7.26408L10.5407 2.24195C11.2166 0.781624 12.7814 0.777048 13.4594 2.24195L15.7838 7.26408L21.296 7.91543C22.8975 8.10466 23.3874 9.59254 22.1975 10.6892L18.1241 14.4433L19.2052 19.8658C19.5202 21.4457 18.255 22.3675 16.8444 21.5806L12 18.8781L7.15563 21.5806ZM11.5571 17.0432C11.8324 16.8897 12.1676 16.8897 12.4429 17.0432L17.3323 19.7708L16.2413 14.2984C16.1793 13.9876 16.2837 13.6669 16.5167 13.4522L20.6239 9.66684L15.0656 9.01005C14.7519 8.97298 14.4799 8.77574 14.3472 8.48908L12 3.41764L9.65282 8.48908C9.52015 8.77574 9.24818 8.97298 8.93449 9.01005L3.37614 9.66684L7.48336 13.4522C7.71641 13.6669 7.82078 13.9876 7.75881 14.2984L6.66774 19.7708L11.5571 17.0432Z" fill="#242127"/>
</g>
</svg>
