<svg width="24" height="25" viewBox="0 0 24 25" fill="none" xmlns="http://www.w3.org/2000/svg">
<g id="switches">
<path id="Vector" fill-rule="evenodd" clip-rule="evenodd" d="M12.189 6C12.0656 6.47943 12 6.98205 12 7.5C12 8.01795 12.0656 8.52057 12.189 9H4.5C3.67157 9 3 8.32843 3 7.5C3 6.67157 3.67157 6 4.5 6H12.189ZM18 11.5C15.7909 11.5 14 9.70914 14 7.5C14 5.29086 15.7909 3.5 18 3.5C20.2091 3.5 22 5.29086 22 7.5C22 9.70914 20.2091 11.5 18 11.5ZM11.811 16H19.5C20.3284 16 21 16.6716 21 17.5C21 18.3284 20.3284 19 19.5 19H11.811C11.9344 18.5206 12 18.0179 12 17.5C12 16.9821 11.9344 16.4794 11.811 16ZM6 21.5C3.79086 21.5 2 19.7091 2 17.5C2 15.2909 3.79086 13.5 6 13.5C8.20914 13.5 10 15.2909 10 17.5C10 19.7091 8.20914 21.5 6 21.5Z" fill="white"/>
</g>
</svg>
