<svg width="24" height="24" viewBox="0 0 24 24" fill="none" xmlns="http://www.w3.org/2000/svg">
<g id="tabbar-mer-selected">
<path id="Vector" fill-rule="evenodd" clip-rule="evenodd" d="M21.0082 16C21.5447 16 22 16.4472 22 16.999V18.001C22 18.5573 21.556 19 21.0082 19H2.9918C2.45531 19 2 18.5528 2 18.001V16.999C2 16.4427 2.44405 16 2.9918 16H21.0082ZM21.0082 10C21.5447 10 22 10.4472 22 10.999V12.001C22 12.5573 21.556 13 21.0082 13H2.9918C2.45531 13 2 12.5528 2 12.001V10.999C2 10.4427 2.44405 10 2.9918 10H21.0082ZM21.0082 4C21.5447 4 22 4.44725 22 4.99896V6.00104C22 6.55734 21.556 7 21.0082 7H2.9918C2.45531 7 2 6.55275 2 6.00104V4.99896C2 4.44266 2.44405 4 2.9918 4H21.0082Z" fill="white"/>
</g>
</svg>
