<svg width="24" height="24" viewBox="0 0 24 24" fill="none" xmlns="http://www.w3.org/2000/svg">
<g id="toolspx">
<path id="Vector" fill-rule="evenodd" clip-rule="evenodd" d="M18.75 8.78L17.34 10.19L16.28 9.14L11.13 14.29V16.41L5.83 21.71C5.44 22.1 4.81 22.1 4.42 21.71L2.3 19.59C1.91 19.2 1.91 18.57 2.3 18.18L7.6 12.88H9.72L10.57 12.03L6.44 7.9H5.03L2 4.87L4.83 2.04L7.85 5.06V6.48L11.98 10.61L14.87 7.72L13.81 6.66L15.22 5.25H12.39L11.68 4.54L15.22 1L15.92 1.71V4.53L17.33 3.12L20.87 6.66C22.04 7.83 22.04 9.73 20.87 10.9L18.75 8.78ZM5.12 19.58L9.36 15.34L8.65 14.63L4.41 18.87L5.12 19.58ZM16.37 12.87L21.67 18.17C22.06 18.56 22.06 19.2 21.67 19.58L19.55 21.7C19.16 22.09 18.53 22.09 18.14 21.7L12.84 16.4V15.41L15.38 12.87H16.37ZM14.6 15.35L18.84 19.59L19.55 18.88L15.31 14.64L14.6 15.35Z" fill="#fff"/>
</g>
</svg>
