<svg width="24" height="24" viewBox="0 0 24 24" fill="none" xmlns="http://www.w3.org/2000/svg">
<g id="users">
<g id="Vector">
<path d="M7.90024 11C8.60024 11 9.30024 10.8 9.90024 10.5C9.60024 9.7 9.40024 8.9 9.40024 8C9.40024 6.3 10.1002 4.7 11.2002 3.5C10.4002 2.6 9.20024 2 7.90024 2C5.40024 2 3.50024 4 3.50024 6.5C3.50024 9 5.50024 11 7.90024 11Z" fill="white"/>
<path d="M6.40024 20.7C5.60024 18.9 5.90024 16.8 7.30024 15.1C8.30024 13.9 9.60024 12.9 11.1002 12.3C10.1002 12 9.10024 11.9 8.00024 11.9C5.10024 11.9 2.60024 12.7 0.900239 14.8C-0.699761 16.7 -0.899761 20.5 6.60024 20.9C6.50024 20.9 6.40024 20.8 6.40024 20.7Z" fill="white"/>
<path fill-rule="evenodd" clip-rule="evenodd" d="M21.5003 17.6C20.4003 16.2 18.5003 15.5 15.9003 15.5C13.3003 15.5 11.5003 16.2 10.3003 17.6C9.80027 18.3 9.80027 18.8 10.0003 19.1C10.3003 19.5 11.6003 20.5 15.9003 20.5C20.2003 20.5 21.5003 19.5 21.8003 19.1C21.9003 18.8 22.0003 18.3 21.5003 17.6ZM18.5003 11.7C19.6003 10.9 20.3003 9.5 20.3003 8C20.3003 5.5 18.4003 3.5 15.9003 3.5C13.4003 3.5 11.5003 5.5 11.5003 8C11.5003 9.5 12.2003 10.8 13.3003 11.7C14.0003 12.2 14.9003 12.5 15.9003 12.5C16.9003 12.5 17.8003 12.2 18.5003 11.7ZM18.9003 13.8C20.5003 14.2 22.0003 15 23.0003 16.3C24.7003 18.4 24.8003 22.5 15.9003 22.5C7.00027 22.5 7.10027 18.4 8.80027 16.3C9.90027 15 11.3003 14.2 12.9003 13.8C13.8003 13.6 14.8003 13.5 15.9003 13.5C17.0003 13.5 18.0003 13.6 18.9003 13.8ZM18.3003 8C18.3003 6.6 17.2003 5.5 15.9003 5.5C14.6003 5.5 13.5003 6.6 13.5003 8C13.5003 9.4 14.6003 10.5 15.9003 10.5C17.2003 10.5 18.3003 9.5 18.3003 8Z" fill="white"/>
</g>
</g>
</svg>
