<svg width="214" height="64" viewBox="0 0 214 64" fill="none" xmlns="http://www.w3.org/2000/svg">
<rect x="0.224113" y="10.9032" width="5.22241" height="5.22241" fill="black" fill-opacity="0.55"/>
<rect x="0.224113" y="16.1256" width="5.22241" height="5.22241" fill="black" fill-opacity="0.55"/>
<rect x="5.44653" y="10.9032" width="5.22241" height="5.22241" fill="black"/>
<rect x="5.44653" y="5.68079" width="5.22241" height="5.22241" fill="black"/>
<rect x="5.44653" y="16.1256" width="5.22241" height="5.22241" fill="black" fill-opacity="0.55"/>
<rect x="5.44653" y="21.348" width="5.22241" height="5.22241" fill="black" fill-opacity="0.55"/>
<rect x="10.6689" y="10.9032" width="5.22241" height="5.22241" fill="black"/>
<rect x="10.6689" y="5.68079" width="5.22241" height="5.22241" fill="black"/>
<rect x="10.6689" y="0.458374" width="5.22241" height="5.22241" fill="black"/>
<rect x="10.6689" y="16.1256" width="5.22241" height="5.22241" fill="black" fill-opacity="0.55"/>
<rect x="10.6689" y="21.348" width="5.22241" height="5.22241" fill="black" fill-opacity="0.55"/>
<rect x="10.6689" y="26.5704" width="5.22241" height="5.22241" fill="black" fill-opacity="0.55"/>
<rect x="15.8913" y="10.9032" width="5.22241" height="5.22241" fill="black"/>
<rect x="15.8913" y="5.68079" width="5.22241" height="5.22241" fill="black"/>
<rect x="15.8913" y="0.458374" width="5.22241" height="5.22241" fill="black"/>
<rect x="15.8913" y="16.1256" width="5.22241" height="5.22241" fill="black"/>
<rect x="15.8913" y="21.348" width="5.22241" height="5.22241" fill="black" fill-opacity="0.55"/>
<rect x="15.8913" y="26.5704" width="5.22241" height="5.22241" fill="black" fill-opacity="0.55"/>
<rect x="15.8913" y="31.7928" width="5.22241" height="5.22241" fill="black" fill-opacity="0.55"/>
<rect x="15.8913" y="37.0153" width="5.22241" height="5.22241" fill="black" fill-opacity="0.55"/>
<rect x="10.6689" y="37.0153" width="5.22241" height="5.22241" fill="black" fill-opacity="0.55"/>
<rect x="15.8913" y="42.2377" width="5.22241" height="5.22241" fill="black"/>
<rect x="10.6689" y="42.2377" width="5.22241" height="5.22241" fill="black" fill-opacity="0.55"/>
<rect x="5.44653" y="42.2377" width="5.22241" height="5.22241" fill="black" fill-opacity="0.55"/>
<rect x="15.8913" y="47.4601" width="5.22241" height="5.22241" fill="black"/>
<rect x="15.8913" y="52.6825" width="5.22241" height="5.22241" fill="black"/>
<rect x="15.8913" y="57.9049" width="5.22241" height="5.22241" fill="black"/>
<rect x="10.6689" y="47.4601" width="5.22241" height="5.22241" fill="black" fill-opacity="0.55"/>
<rect x="10.6689" y="52.6825" width="5.22241" height="5.22241" fill="black"/>
<rect x="10.6689" y="57.9049" width="5.22241" height="5.22241" fill="black"/>
<rect x="5.44653" y="47.4601" width="5.22241" height="5.22241" fill="black" fill-opacity="0.55"/>
<rect x="0.224113" y="47.4601" width="5.22241" height="5.22241" fill="black" fill-opacity="0.55"/>
<rect x="5.44653" y="52.6825" width="5.22241" height="5.22241" fill="black" fill-opacity="0.55"/>
<rect x="21.1138" y="10.9032" width="5.22241" height="5.22241" fill="black"/>
<rect x="26.3362" y="10.9032" width="5.22241" height="5.22241" fill="black"/>
<rect x="21.1138" y="5.68079" width="5.22241" height="5.22241" fill="black"/>
<rect x="21.1138" y="16.1256" width="5.22241" height="5.22241" fill="black"/>
<rect x="26.3362" y="16.1256" width="5.22241" height="5.22241" fill="black"/>
<rect x="31.5586" y="16.1256" width="5.22241" height="5.22241" fill="black"/>
<rect x="42.0034" y="16.1256" width="5.22241" height="5.22241" fill="black" fill-opacity="0.55"/>
<rect x="47.2258" y="16.1256" width="5.22241" height="5.22241" fill="black" fill-opacity="0.55"/>
<rect x="52.4482" y="16.1256" width="5.22241" height="5.22241" fill="black"/>
<rect x="57.6706" y="16.1256" width="5.22241" height="5.22241" fill="black"/>
<rect x="47.2258" y="21.348" width="5.22241" height="5.22241" fill="black" fill-opacity="0.55"/>
<rect x="52.4482" y="21.348" width="5.22241" height="5.22241" fill="black"/>
<rect x="42.0034" y="10.9032" width="5.22241" height="5.22241" fill="black" fill-opacity="0.55"/>
<rect x="42.0034" y="5.68079" width="5.22241" height="5.22241" fill="black" fill-opacity="0.55"/>
<rect x="47.2258" y="5.68079" width="5.22241" height="5.22241" fill="black" fill-opacity="0.55"/>
<rect x="47.2258" y="0.458374" width="5.22241" height="5.22241" fill="black" fill-opacity="0.55"/>
<rect x="52.4482" y="0.458374" width="5.22241" height="5.22241" fill="black"/>
<rect x="52.4482" y="5.68079" width="5.22241" height="5.22241" fill="black"/>
<rect x="57.6706" y="5.68079" width="5.22241" height="5.22241" fill="black"/>
<rect x="47.2258" y="10.9032" width="5.22241" height="5.22241" fill="black" fill-opacity="0.55"/>
<rect x="52.4482" y="10.9032" width="5.22241" height="5.22241" fill="black"/>
<rect x="57.6706" y="10.9032" width="5.22241" height="5.22241" fill="black"/>
<rect x="62.8931" y="10.9032" width="5.22241" height="5.22241" fill="black"/>
<rect x="36.781" y="10.9032" width="5.22241" height="5.22241" fill="black" fill-opacity="0.55"/>
<rect x="21.1138" y="21.348" width="5.22241" height="5.22241" fill="black"/>
<rect x="26.3362" y="21.348" width="5.22241" height="5.22241" fill="black"/>
<rect x="31.5586" y="21.348" width="5.22241" height="5.22241" fill="black"/>
<rect x="36.781" y="21.348" width="5.22241" height="5.22241" fill="black"/>
<rect x="21.1138" y="26.5704" width="5.22241" height="5.22241" fill="black" fill-opacity="0.55"/>
<rect x="26.3362" y="26.5704" width="5.22241" height="5.22241" fill="black"/>
<rect x="31.5586" y="26.5704" width="5.22241" height="5.22241" fill="black"/>
<rect x="36.781" y="26.5704" width="5.22241" height="5.22241" fill="black"/>
<rect x="42.0034" y="26.5704" width="5.22241" height="5.22241" fill="black"/>
<rect x="21.1138" y="31.7928" width="5.22241" height="5.22241" fill="black" fill-opacity="0.55"/>
<rect x="21.1138" y="37.0153" width="5.22241" height="5.22241" fill="black"/>
<rect x="21.1138" y="42.2377" width="5.22241" height="5.22241" fill="black"/>
<rect x="21.1138" y="47.4601" width="5.22241" height="5.22241" fill="black"/>
<rect x="21.1138" y="52.6825" width="5.22241" height="5.22241" fill="black"/>
<rect x="26.3362" y="31.7928" width="5.22241" height="5.22241" fill="black" fill-opacity="0.55"/>
<rect x="26.3362" y="37.0153" width="5.22241" height="5.22241" fill="black"/>
<rect x="26.3362" y="42.2377" width="5.22241" height="5.22241" fill="black"/>
<rect x="26.3362" y="47.4601" width="5.22241" height="5.22241" fill="black"/>
<rect x="31.5586" y="31.7928" width="5.22241" height="5.22241" fill="black"/>
<rect x="31.5586" y="37.0153" width="5.22241" height="5.22241" fill="black"/>
<rect x="31.5586" y="42.2377" width="5.22241" height="5.22241" fill="black"/>
<rect x="36.781" y="31.7928" width="5.22241" height="5.22241" fill="black"/>
<rect x="36.781" y="37.0153" width="5.22241" height="5.22241" fill="black"/>
<rect x="47.2258" y="37.0153" width="5.22241" height="5.22241" fill="black" fill-opacity="0.55"/>
<rect x="52.4482" y="37.0153" width="5.22241" height="5.22241" fill="black" fill-opacity="0.55"/>
<rect x="47.2258" y="42.2377" width="5.22241" height="5.22241" fill="black" fill-opacity="0.55"/>
<rect x="52.4482" y="42.2377" width="5.22241" height="5.22241" fill="black" fill-opacity="0.55"/>
<rect x="57.6706" y="42.2377" width="5.22241" height="5.22241" fill="black" fill-opacity="0.55"/>
<rect x="42.0034" y="42.2377" width="5.22241" height="5.22241" fill="black" fill-opacity="0.55"/>
<rect x="47.2258" y="47.4601" width="5.22241" height="5.22241" fill="black" fill-opacity="0.55"/>
<rect x="52.4482" y="47.4601" width="5.22241" height="5.22241" fill="black" fill-opacity="0.55"/>
<rect x="57.6706" y="47.4601" width="5.22241" height="5.22241" fill="black" fill-opacity="0.55"/>
<rect x="62.8931" y="47.4601" width="5.22241" height="5.22241" fill="black" fill-opacity="0.55"/>
<rect x="42.0034" y="47.4601" width="5.22241" height="5.22241" fill="black" fill-opacity="0.55"/>
<rect x="36.781" y="47.4601" width="5.22241" height="5.22241" fill="black" fill-opacity="0.55"/>
<rect x="47.2258" y="52.6825" width="5.22241" height="5.22241" fill="black"/>
<rect x="47.2258" y="57.9049" width="5.22241" height="5.22241" fill="black"/>
<rect x="52.4482" y="57.9049" width="5.22241" height="5.22241" fill="black"/>
<rect x="52.4482" y="52.6825" width="5.22241" height="5.22241" fill="black"/>
<rect x="57.6706" y="52.6825" width="5.22241" height="5.22241" fill="black"/>
<rect x="42.0034" y="52.6825" width="5.22241" height="5.22241" fill="black"/>
<rect x="42.0034" y="31.7928" width="5.22241" height="5.22241" fill="black"/>
<rect x="83.7827" y="40.6057" width="5.87521" height="5.87521" fill="black"/>
<rect x="189.536" y="40.6057" width="5.87521" height="5.87521" fill="black"/>
<rect x="101.408" y="40.6057" width="5.87521" height="5.87521" fill="black"/>
<rect x="207.162" y="40.6057" width="5.87521" height="5.87521" fill="black"/>
<rect x="83.7827" y="34.7304" width="5.87521" height="5.87521" fill="black"/>
<rect x="189.536" y="34.7304" width="5.87521" height="5.87521" fill="black"/>
<rect x="101.408" y="34.7304" width="5.87521" height="5.87521" fill="black"/>
<rect x="207.162" y="34.7304" width="5.87521" height="5.87521" fill="black"/>
<rect x="83.7827" y="28.8552" width="5.87521" height="5.87521" fill="black"/>
<rect x="189.536" y="28.8552" width="5.87521" height="5.87521" fill="black"/>
<rect x="101.408" y="28.8552" width="5.87521" height="5.87521" fill="black"/>
<rect x="207.162" y="28.8552" width="5.87521" height="5.87521" fill="black"/>
<rect x="95.5331" y="28.8552" width="5.87521" height="5.87521" fill="black"/>
<rect x="201.287" y="28.8552" width="5.87521" height="5.87521" fill="black"/>
<rect x="83.7827" y="22.98" width="5.87521" height="5.87521" fill="black"/>
<rect x="189.536" y="22.98" width="5.87521" height="5.87521" fill="black"/>
<rect x="101.408" y="22.98" width="5.87521" height="5.87521" fill="black"/>
<rect x="207.162" y="22.98" width="5.87521" height="5.87521" fill="black"/>
<rect x="89.6579" y="22.98" width="5.87521" height="5.87521" fill="black"/>
<rect x="195.412" y="22.98" width="5.87521" height="5.87521" fill="black"/>
<rect x="83.7827" y="17.1048" width="5.87521" height="5.87521" fill="black"/>
<rect x="189.536" y="17.1048" width="5.87521" height="5.87521" fill="black"/>
<rect x="101.408" y="17.1048" width="5.87521" height="5.87521" fill="black"/>
<rect x="207.162" y="17.1048" width="5.87521" height="5.87521" fill="black"/>
<rect x="113.159" y="17.1048" width="5.87521" height="5.87521" fill="black"/>
<rect x="119.034" y="17.1048" width="5.87521" height="5.87521" fill="black"/>
<rect x="119.034" y="22.98" width="5.87521" height="5.87521" fill="black"/>
<rect x="119.034" y="28.8552" width="5.87521" height="5.87521" fill="black"/>
<rect x="119.034" y="34.7304" width="5.87521" height="5.87521" fill="black"/>
<rect x="119.034" y="40.6057" width="5.87521" height="5.87521" fill="black"/>
<rect x="124.909" y="17.1048" width="5.87521" height="5.87521" fill="black"/>
<rect x="136.66" y="17.1048" width="5.87521" height="5.87521" fill="black"/>
<rect x="136.66" y="22.98" width="5.87521" height="5.87521" fill="black"/>
<rect x="136.66" y="28.8552" width="5.87521" height="5.87521" fill="black"/>
<rect x="136.66" y="34.7304" width="5.87521" height="5.87521" fill="black"/>
<rect x="136.66" y="40.6057" width="5.87521" height="5.87521" fill="black"/>
<rect x="142.535" y="40.6057" width="5.87521" height="5.87521" fill="black"/>
<rect x="148.41" y="40.6057" width="5.87521" height="5.87521" fill="black"/>
<rect x="148.41" y="40.6057" width="5.87521" height="5.87521" fill="black"/>
<rect x="160.16" y="40.6057" width="5.87521" height="5.87521" fill="black"/>
<rect x="160.16" y="34.7304" width="5.87521" height="5.87521" fill="black"/>
<rect x="160.16" y="28.8552" width="5.87521" height="5.87521" fill="black"/>
<rect x="166.036" y="28.8552" width="5.87521" height="5.87521" fill="black"/>
<rect x="171.911" y="28.8552" width="5.87521" height="5.87521" fill="black"/>
<rect x="177.786" y="28.8552" width="5.87521" height="5.87521" fill="black"/>
<rect x="177.786" y="34.7304" width="5.87521" height="5.87521" fill="black"/>
<rect x="177.786" y="40.6057" width="5.87521" height="5.87521" fill="black"/>
<rect x="177.786" y="22.98" width="5.87521" height="5.87521" fill="black"/>
<rect x="160.16" y="22.98" width="5.87521" height="5.87521" fill="black"/>
<rect x="166.036" y="17.1048" width="5.87521" height="5.87521" fill="black"/>
<rect x="171.911" y="17.1048" width="5.87521" height="5.87521" fill="black"/>
</svg>
