<svg width="214" height="64" viewBox="0 0 214 64" fill="none" xmlns="http://www.w3.org/2000/svg">
<rect x="0.224113" y="11.1171" width="5.22241" height="5.22241" fill="#96D94E"/>
<rect x="0.224113" y="16.3395" width="5.22241" height="5.22241" fill="#96D94E"/>
<rect x="5.44653" y="11.1171" width="5.22241" height="5.22241" fill="#00A332"/>
<rect x="5.44653" y="5.89471" width="5.22241" height="5.22241" fill="#00A332"/>
<rect x="5.44653" y="16.3395" width="5.22241" height="5.22241" fill="#96D94E"/>
<rect x="5.44653" y="21.562" width="5.22241" height="5.22241" fill="#96D94E"/>
<rect x="10.6689" y="11.1171" width="5.22241" height="5.22241" fill="#00A332"/>
<rect x="10.6689" y="5.89471" width="5.22241" height="5.22241" fill="#00A332"/>
<rect x="10.6689" y="0.672302" width="5.22241" height="5.22241" fill="#00A332"/>
<rect x="10.6689" y="16.3395" width="5.22241" height="5.22241" fill="#96D94E"/>
<rect x="10.6689" y="21.562" width="5.22241" height="5.22241" fill="#96D94E"/>
<rect x="10.6689" y="26.7844" width="5.22241" height="5.22241" fill="#96D94E"/>
<rect x="15.8913" y="11.1171" width="5.22241" height="5.22241" fill="#00A332"/>
<rect x="15.8913" y="5.89471" width="5.22241" height="5.22241" fill="#00A332"/>
<rect x="15.8913" y="0.672302" width="5.22241" height="5.22241" fill="#00A332"/>
<rect x="15.8913" y="16.3395" width="5.22241" height="5.22241" fill="#00A332"/>
<rect x="15.8913" y="21.562" width="5.22241" height="5.22241" fill="#96D94E"/>
<rect x="15.8913" y="26.7844" width="5.22241" height="5.22241" fill="#96D94E"/>
<rect x="15.8913" y="32.0068" width="5.22241" height="5.22241" fill="#96D94E"/>
<rect x="15.8913" y="37.2292" width="5.22241" height="5.22241" fill="#FFC000"/>
<rect x="10.6689" y="37.2292" width="5.22241" height="5.22241" fill="#FFC000"/>
<rect x="15.8913" y="42.4516" width="5.22241" height="5.22241" fill="#FF7337"/>
<rect x="10.6689" y="42.4516" width="5.22241" height="5.22241" fill="#FFC000"/>
<rect x="5.44653" y="42.4516" width="5.22241" height="5.22241" fill="#FFC000"/>
<rect x="15.8913" y="47.674" width="5.22241" height="5.22241" fill="#FF7337"/>
<rect x="15.8913" y="52.8964" width="5.22241" height="5.22241" fill="#FF7337"/>
<rect x="15.8913" y="58.1188" width="5.22241" height="5.22241" fill="#FF7337"/>
<rect x="10.6689" y="47.674" width="5.22241" height="5.22241" fill="#FFC000"/>
<rect x="10.6689" y="52.8964" width="5.22241" height="5.22241" fill="#FF7337"/>
<rect x="10.6689" y="58.1188" width="5.22241" height="5.22241" fill="#FF7337"/>
<rect x="5.44653" y="47.674" width="5.22241" height="5.22241" fill="#FFC000"/>
<rect x="0.224113" y="47.674" width="5.22241" height="5.22241" fill="#FFC000"/>
<rect x="5.44653" y="52.8964" width="5.22241" height="5.22241" fill="#FFC000"/>
<rect x="21.1138" y="11.1171" width="5.22241" height="5.22241" fill="#00A332"/>
<rect x="26.3362" y="11.1171" width="5.22241" height="5.22241" fill="#00A332"/>
<rect x="21.1138" y="5.89471" width="5.22241" height="5.22241" fill="#00A332"/>
<rect x="21.1138" y="16.3395" width="5.22241" height="5.22241" fill="#00A332"/>
<rect x="26.3362" y="16.3395" width="5.22241" height="5.22241" fill="#00A332"/>
<rect x="31.5586" y="16.3395" width="5.22241" height="5.22241" fill="#00A332"/>
<rect x="42.0034" y="16.3395" width="5.22241" height="5.22241" fill="#FF7EA9"/>
<rect x="47.2258" y="16.3395" width="5.22241" height="5.22241" fill="#FF7EA9"/>
<rect x="52.4482" y="16.3395" width="5.22241" height="5.22241" fill="#EF2500"/>
<rect x="57.6706" y="16.3395" width="5.22241" height="5.22241" fill="#EF2500"/>
<rect x="47.2258" y="21.562" width="5.22241" height="5.22241" fill="#FF7EA9"/>
<rect x="52.4482" y="21.562" width="5.22241" height="5.22241" fill="#EF2500"/>
<rect x="42.0034" y="11.1171" width="5.22241" height="5.22241" fill="#FF7EA9"/>
<rect x="42.0034" y="5.89471" width="5.22241" height="5.22241" fill="#FF7EA9"/>
<rect x="47.2258" y="5.89471" width="5.22241" height="5.22241" fill="#FF7EA9"/>
<rect x="47.2258" y="0.672302" width="5.22241" height="5.22241" fill="#FF7EA9"/>
<rect x="52.4482" y="0.672302" width="5.22241" height="5.22241" fill="#EF2500"/>
<rect x="52.4482" y="5.89471" width="5.22241" height="5.22241" fill="#EF2500"/>
<rect x="57.6706" y="5.89471" width="5.22241" height="5.22241" fill="#EF2500"/>
<rect x="47.2258" y="11.1171" width="5.22241" height="5.22241" fill="#FF7EA9"/>
<rect x="52.4482" y="11.1171" width="5.22241" height="5.22241" fill="#EF2500"/>
<rect x="57.6706" y="11.1171" width="5.22241" height="5.22241" fill="#EF2500"/>
<rect x="62.8931" y="11.1171" width="5.22241" height="5.22241" fill="#EF2500"/>
<rect x="36.781" y="11.1171" width="5.22241" height="5.22241" fill="#FF7EA9"/>
<rect x="21.1138" y="21.562" width="5.22241" height="5.22241" fill="#00A332"/>
<rect x="26.3362" y="21.562" width="5.22241" height="5.22241" fill="#00A332"/>
<rect x="31.5586" y="21.562" width="5.22241" height="5.22241" fill="#00A332"/>
<rect x="36.781" y="21.562" width="5.22241" height="5.22241" fill="#00A332"/>
<rect x="21.1138" y="26.7844" width="5.22241" height="5.22241" fill="#96D94E"/>
<rect x="26.3362" y="26.7844" width="5.22241" height="5.22241" fill="#00A332"/>
<rect x="31.5586" y="26.7844" width="5.22241" height="5.22241" fill="#00A332"/>
<rect x="36.781" y="26.7844" width="5.22241" height="5.22241" fill="#00A332"/>
<rect x="42.0034" y="26.7844" width="5.22241" height="5.22241" fill="#00A332"/>
<rect x="21.1138" y="32.0068" width="5.22241" height="5.22241" fill="#96D94E"/>
<rect x="21.1138" y="37.2292" width="5.22241" height="5.22241" fill="#FF7337"/>
<rect x="21.1138" y="42.4516" width="5.22241" height="5.22241" fill="#FF7337"/>
<rect x="21.1138" y="47.674" width="5.22241" height="5.22241" fill="#FF7337"/>
<rect x="21.1138" y="52.8964" width="5.22241" height="5.22241" fill="#FF7337"/>
<rect x="26.3362" y="32.0068" width="5.22241" height="5.22241" fill="#96D94E"/>
<rect x="26.3362" y="37.2292" width="5.22241" height="5.22241" fill="#FF7337"/>
<rect x="26.3362" y="42.4516" width="5.22241" height="5.22241" fill="#FF7337"/>
<rect x="26.3362" y="47.674" width="5.22241" height="5.22241" fill="#FF7337"/>
<rect x="31.5586" y="32.0068" width="5.22241" height="5.22241" fill="#00A332"/>
<rect x="31.5586" y="37.2292" width="5.22241" height="5.22241" fill="#FF7337"/>
<rect x="31.5586" y="42.4516" width="5.22241" height="5.22241" fill="#FF7337"/>
<rect x="36.781" y="32.0068" width="5.22241" height="5.22241" fill="#00A332"/>
<rect x="36.781" y="37.2292" width="5.22241" height="5.22241" fill="#FF7337"/>
<rect x="47.2258" y="37.2292" width="5.22241" height="5.22241" fill="#00C1FF"/>
<rect x="52.4482" y="37.2292" width="5.22241" height="5.22241" fill="#00C1FF"/>
<rect x="47.2258" y="42.4516" width="5.22241" height="5.22241" fill="#00C1FF"/>
<rect x="52.4482" y="42.4516" width="5.22241" height="5.22241" fill="#00C1FF"/>
<rect x="57.6706" y="42.4516" width="5.22241" height="5.22241" fill="#00C1FF"/>
<rect x="42.0034" y="42.4516" width="5.22241" height="5.22241" fill="#00C1FF"/>
<rect x="47.2258" y="47.674" width="5.22241" height="5.22241" fill="#00C1FF"/>
<rect x="52.4482" y="47.674" width="5.22241" height="5.22241" fill="#00C1FF"/>
<rect x="57.6706" y="47.674" width="5.22241" height="5.22241" fill="#00C1FF"/>
<rect x="62.8931" y="47.674" width="5.22241" height="5.22241" fill="#00C1FF"/>
<rect x="42.0034" y="47.674" width="5.22241" height="5.22241" fill="#00C1FF"/>
<rect x="36.781" y="47.674" width="5.22241" height="5.22241" fill="#00C1FF"/>
<rect x="47.2258" y="52.8964" width="5.22241" height="5.22241" fill="#0058FF"/>
<rect x="47.2258" y="58.1188" width="5.22241" height="5.22241" fill="#0058FF"/>
<rect x="52.4482" y="58.1188" width="5.22241" height="5.22241" fill="#0058FF"/>
<rect x="52.4482" y="52.8964" width="5.22241" height="5.22241" fill="#0058FF"/>
<rect x="57.6706" y="52.8964" width="5.22241" height="5.22241" fill="#0058FF"/>
<rect x="42.0034" y="52.8964" width="5.22241" height="5.22241" fill="#0058FF"/>
<rect x="42.0034" y="32.0068" width="5.22241" height="5.22241" fill="#00A332"/>
<rect x="83.7827" y="40.8196" width="5.87521" height="5.87521" fill="white"/>
<rect x="189.536" y="40.8196" width="5.87521" height="5.87521" fill="white"/>
<rect x="101.408" y="40.8196" width="5.87521" height="5.87521" fill="white"/>
<rect x="207.162" y="40.8196" width="5.87521" height="5.87521" fill="white"/>
<rect x="83.7827" y="34.9444" width="5.87521" height="5.87521" fill="white"/>
<rect x="189.536" y="34.9444" width="5.87521" height="5.87521" fill="white"/>
<rect x="101.408" y="34.9444" width="5.87521" height="5.87521" fill="white"/>
<rect x="207.162" y="34.9444" width="5.87521" height="5.87521" fill="white"/>
<rect x="83.7827" y="29.0692" width="5.87521" height="5.87521" fill="white"/>
<rect x="189.536" y="29.0692" width="5.87521" height="5.87521" fill="white"/>
<rect x="101.408" y="29.0692" width="5.87521" height="5.87521" fill="white"/>
<rect x="207.162" y="29.0692" width="5.87521" height="5.87521" fill="white"/>
<rect x="95.5331" y="29.0692" width="5.87521" height="5.87521" fill="white"/>
<rect x="201.287" y="29.0692" width="5.87521" height="5.87521" fill="white"/>
<rect x="83.7827" y="23.194" width="5.87521" height="5.87521" fill="white"/>
<rect x="189.536" y="23.194" width="5.87521" height="5.87521" fill="white"/>
<rect x="101.408" y="23.194" width="5.87521" height="5.87521" fill="white"/>
<rect x="207.162" y="23.194" width="5.87521" height="5.87521" fill="white"/>
<rect x="89.6579" y="23.194" width="5.87521" height="5.87521" fill="white"/>
<rect x="195.412" y="23.194" width="5.87521" height="5.87521" fill="white"/>
<rect x="83.7827" y="17.3188" width="5.87521" height="5.87521" fill="white"/>
<rect x="189.536" y="17.3188" width="5.87521" height="5.87521" fill="white"/>
<rect x="101.408" y="17.3188" width="5.87521" height="5.87521" fill="white"/>
<rect x="207.162" y="17.3188" width="5.87521" height="5.87521" fill="white"/>
<rect x="113.159" y="17.3188" width="5.87521" height="5.87521" fill="white"/>
<rect x="119.034" y="17.3188" width="5.87521" height="5.87521" fill="white"/>
<rect x="119.034" y="23.194" width="5.87521" height="5.87521" fill="white"/>
<rect x="119.034" y="29.0692" width="5.87521" height="5.87521" fill="white"/>
<rect x="119.034" y="34.9444" width="5.87521" height="5.87521" fill="white"/>
<rect x="119.034" y="40.8196" width="5.87521" height="5.87521" fill="white"/>
<rect x="124.909" y="17.3188" width="5.87521" height="5.87521" fill="white"/>
<rect x="136.66" y="17.3188" width="5.87521" height="5.87521" fill="white"/>
<rect x="136.66" y="23.194" width="5.87521" height="5.87521" fill="white"/>
<rect x="136.66" y="29.0692" width="5.87521" height="5.87521" fill="white"/>
<rect x="136.66" y="34.9444" width="5.87521" height="5.87521" fill="white"/>
<rect x="136.66" y="40.8196" width="5.87521" height="5.87521" fill="white"/>
<rect x="142.535" y="40.8196" width="5.87521" height="5.87521" fill="white"/>
<rect x="148.41" y="40.8196" width="5.87521" height="5.87521" fill="white"/>
<rect x="148.41" y="40.8196" width="5.87521" height="5.87521" fill="white"/>
<rect x="160.16" y="40.8196" width="5.87521" height="5.87521" fill="white"/>
<rect x="160.16" y="34.9444" width="5.87521" height="5.87521" fill="white"/>
<rect x="160.16" y="29.0692" width="5.87521" height="5.87521" fill="white"/>
<rect x="166.036" y="29.0692" width="5.87521" height="5.87521" fill="white"/>
<rect x="171.911" y="29.0692" width="5.87521" height="5.87521" fill="white"/>
<rect x="177.786" y="29.0692" width="5.87521" height="5.87521" fill="white"/>
<rect x="177.786" y="34.9444" width="5.87521" height="5.87521" fill="white"/>
<rect x="177.786" y="40.8196" width="5.87521" height="5.87521" fill="white"/>
<rect x="177.786" y="23.194" width="5.87521" height="5.87521" fill="white"/>
<rect x="160.16" y="23.194" width="5.87521" height="5.87521" fill="white"/>
<rect x="166.036" y="17.3188" width="5.87521" height="5.87521" fill="white"/>
<rect x="171.911" y="17.3188" width="5.87521" height="5.87521" fill="white"/>
</svg>
