<svg width="70" height="70" viewBox="0 0 70 70" fill="none" xmlns="http://www.w3.org/2000/svg">
<rect x="0.224106" y="13.7174" width="5.30769" height="5.30769" fill="black" fill-opacity="0.55"/>
<rect x="0.224106" y="19.0251" width="5.30769" height="5.30769" fill="black" fill-opacity="0.55"/>
<rect x="5.5318" y="13.7174" width="5.30769" height="5.30769" fill="black"/>
<rect x="5.5318" y="8.40973" width="5.30769" height="5.30769" fill="black"/>
<rect x="5.5318" y="19.0251" width="5.30769" height="5.30769" fill="black" fill-opacity="0.55"/>
<rect x="5.5318" y="24.3328" width="5.30769" height="5.30769" fill="black" fill-opacity="0.55"/>
<rect x="10.8395" y="13.7174" width="5.30769" height="5.30769" fill="black"/>
<rect x="10.8395" y="8.40973" width="5.30769" height="5.30769" fill="black"/>
<rect x="10.8395" y="3.10205" width="5.30769" height="5.30769" fill="black"/>
<rect x="10.8395" y="19.0251" width="5.30769" height="5.30769" fill="black" fill-opacity="0.55"/>
<rect x="10.8395" y="24.3328" width="5.30769" height="5.30769" fill="black" fill-opacity="0.55"/>
<rect x="10.8395" y="29.6405" width="5.30769" height="5.30769" fill="black" fill-opacity="0.55"/>
<rect x="16.1472" y="13.7174" width="5.30769" height="5.30769" fill="black"/>
<rect x="16.1472" y="8.40973" width="5.30769" height="5.30769" fill="black"/>
<rect x="16.1472" y="3.10205" width="5.30769" height="5.30769" fill="black"/>
<rect x="16.1472" y="19.0251" width="5.30769" height="5.30769" fill="black"/>
<rect x="16.1472" y="24.3328" width="5.30769" height="5.30769" fill="black" fill-opacity="0.55"/>
<rect x="16.1472" y="29.6405" width="5.30769" height="5.30769" fill="black" fill-opacity="0.55"/>
<rect x="16.1472" y="34.9482" width="5.30769" height="5.30769" fill="black" fill-opacity="0.55"/>
<rect x="16.1472" y="40.2559" width="5.30769" height="5.30769" fill="black" fill-opacity="0.55"/>
<rect x="10.8395" y="40.2559" width="5.30769" height="5.30769" fill="black" fill-opacity="0.55"/>
<rect x="16.1472" y="45.5636" width="5.30769" height="5.30769" fill="black"/>
<rect x="10.8395" y="45.5636" width="5.30769" height="5.30769" fill="black" fill-opacity="0.55"/>
<rect x="5.5318" y="45.5636" width="5.30769" height="5.30769" fill="black" fill-opacity="0.55"/>
<rect x="16.1472" y="50.8713" width="5.30769" height="5.3077" fill="black"/>
<rect x="16.1472" y="56.179" width="5.30769" height="5.30769" fill="black"/>
<rect x="16.1472" y="61.4867" width="5.30769" height="5.30769" fill="black"/>
<rect x="10.8395" y="50.8713" width="5.30769" height="5.3077" fill="black" fill-opacity="0.55"/>
<rect x="10.8395" y="56.179" width="5.30769" height="5.30769" fill="black"/>
<rect x="10.8395" y="61.4867" width="5.30769" height="5.30769" fill="black"/>
<rect x="5.5318" y="50.8713" width="5.30769" height="5.3077" fill="black" fill-opacity="0.55"/>
<rect x="0.224106" y="50.8713" width="5.30769" height="5.3077" fill="black" fill-opacity="0.55"/>
<rect x="5.5318" y="56.179" width="5.30769" height="5.30769" fill="black" fill-opacity="0.55"/>
<rect x="21.4549" y="13.7174" width="5.30769" height="5.30769" fill="black"/>
<rect x="26.7626" y="13.7174" width="5.30769" height="5.30769" fill="black"/>
<rect x="21.4549" y="8.40973" width="5.30769" height="5.30769" fill="black"/>
<rect x="21.4549" y="19.0251" width="5.30769" height="5.30769" fill="black"/>
<rect x="26.7626" y="19.0251" width="5.30769" height="5.30769" fill="black"/>
<rect x="32.0703" y="19.0251" width="5.30769" height="5.30769" fill="black"/>
<rect x="42.6857" y="19.0251" width="5.30769" height="5.30769" fill="black" fill-opacity="0.55"/>
<rect x="47.9933" y="19.0251" width="5.3077" height="5.30769" fill="black" fill-opacity="0.55"/>
<rect x="53.301" y="19.0251" width="5.30769" height="5.30769" fill="black"/>
<rect x="58.6087" y="19.0251" width="5.30769" height="5.30769" fill="black"/>
<rect x="47.9933" y="24.3328" width="5.3077" height="5.30769" fill="black" fill-opacity="0.55"/>
<rect x="53.301" y="24.3328" width="5.30769" height="5.30769" fill="black"/>
<rect x="42.6857" y="13.7174" width="5.30769" height="5.30769" fill="black" fill-opacity="0.55"/>
<rect x="42.6857" y="8.40973" width="5.30769" height="5.30769" fill="black" fill-opacity="0.55"/>
<rect x="47.9933" y="8.40973" width="5.3077" height="5.30769" fill="black" fill-opacity="0.55"/>
<rect x="47.9933" y="3.10205" width="5.3077" height="5.30769" fill="black" fill-opacity="0.55"/>
<rect x="53.301" y="3.10205" width="5.30769" height="5.30769" fill="black"/>
<rect x="53.301" y="8.40973" width="5.30769" height="5.30769" fill="black"/>
<rect x="58.6087" y="8.40973" width="5.30769" height="5.30769" fill="black"/>
<rect x="47.9933" y="13.7174" width="5.3077" height="5.30769" fill="black" fill-opacity="0.55"/>
<rect x="53.301" y="13.7174" width="5.30769" height="5.30769" fill="black"/>
<rect x="58.6087" y="13.7174" width="5.30769" height="5.30769" fill="black"/>
<rect x="63.9164" y="13.7174" width="5.30769" height="5.30769" fill="black"/>
<rect x="37.3779" y="13.7174" width="5.30769" height="5.30769" fill="black" fill-opacity="0.55"/>
<rect x="21.4549" y="24.3328" width="5.30769" height="5.30769" fill="black"/>
<rect x="26.7626" y="24.3328" width="5.30769" height="5.30769" fill="black"/>
<rect x="32.0703" y="24.3328" width="5.30769" height="5.30769" fill="black"/>
<rect x="37.3779" y="24.3328" width="5.30769" height="5.30769" fill="black"/>
<rect x="21.4549" y="29.6405" width="5.30769" height="5.30769" fill="black" fill-opacity="0.55"/>
<rect x="26.7626" y="29.6405" width="5.30769" height="5.30769" fill="black"/>
<rect x="32.0703" y="29.6405" width="5.30769" height="5.30769" fill="black"/>
<rect x="37.3779" y="29.6405" width="5.30769" height="5.30769" fill="black"/>
<rect x="42.6857" y="29.6405" width="5.30769" height="5.30769" fill="black"/>
<rect x="21.4549" y="34.9482" width="5.30769" height="5.30769" fill="black" fill-opacity="0.55"/>
<rect x="21.4549" y="40.2559" width="5.30769" height="5.30769" fill="black"/>
<rect x="21.4549" y="45.5636" width="5.30769" height="5.30769" fill="black"/>
<rect x="21.4549" y="50.8713" width="5.30769" height="5.3077" fill="black"/>
<rect x="21.4549" y="56.179" width="5.30769" height="5.30769" fill="black"/>
<rect x="26.7626" y="34.9482" width="5.30769" height="5.30769" fill="black" fill-opacity="0.55"/>
<rect x="26.7626" y="40.2559" width="5.30769" height="5.30769" fill="black"/>
<rect x="26.7626" y="45.5636" width="5.30769" height="5.30769" fill="black"/>
<rect x="26.7626" y="50.8713" width="5.30769" height="5.3077" fill="black"/>
<rect x="32.0703" y="34.9482" width="5.30769" height="5.30769" fill="black"/>
<rect x="32.0703" y="40.2559" width="5.30769" height="5.30769" fill="black"/>
<rect x="32.0703" y="45.5636" width="5.30769" height="5.30769" fill="black"/>
<rect x="37.3779" y="34.9482" width="5.30769" height="5.30769" fill="black"/>
<rect x="37.3779" y="40.2559" width="5.30769" height="5.30769" fill="black"/>
<rect x="47.9933" y="40.2559" width="5.3077" height="5.30769" fill="black" fill-opacity="0.55"/>
<rect x="53.301" y="40.2559" width="5.30769" height="5.30769" fill="black" fill-opacity="0.55"/>
<rect x="47.9933" y="45.5636" width="5.3077" height="5.30769" fill="black" fill-opacity="0.55"/>
<rect x="53.301" y="45.5636" width="5.30769" height="5.30769" fill="black" fill-opacity="0.55"/>
<rect x="58.6087" y="45.5636" width="5.30769" height="5.30769" fill="black" fill-opacity="0.55"/>
<rect x="42.6857" y="45.5636" width="5.30769" height="5.30769" fill="black" fill-opacity="0.55"/>
<rect x="47.9933" y="50.8713" width="5.3077" height="5.3077" fill="black" fill-opacity="0.55"/>
<rect x="53.301" y="50.8713" width="5.30769" height="5.3077" fill="black" fill-opacity="0.55"/>
<rect x="58.6087" y="50.8713" width="5.30769" height="5.3077" fill="black" fill-opacity="0.55"/>
<rect x="63.9164" y="50.8713" width="5.30769" height="5.3077" fill="black" fill-opacity="0.55"/>
<rect x="42.6857" y="50.8713" width="5.30769" height="5.3077" fill="black" fill-opacity="0.55"/>
<rect x="37.3779" y="50.8713" width="5.30769" height="5.3077" fill="black" fill-opacity="0.55"/>
<rect x="47.9933" y="56.179" width="5.3077" height="5.30769" fill="black"/>
<rect x="47.9933" y="61.4867" width="5.3077" height="5.30769" fill="black"/>
<rect x="53.301" y="61.4867" width="5.30769" height="5.30769" fill="black"/>
<rect x="53.301" y="56.179" width="5.30769" height="5.30769" fill="black"/>
<rect x="58.6087" y="56.179" width="5.30769" height="5.30769" fill="black"/>
<rect x="42.6857" y="56.179" width="5.30769" height="5.30769" fill="black"/>
<rect x="42.6857" y="34.9482" width="5.30769" height="5.30769" fill="black"/>
</svg>
