<svg width="70" height="70" viewBox="0 0 70 70" fill="none" xmlns="http://www.w3.org/2000/svg">
<rect x="0.224106" y="13.8395" width="5.30769" height="5.30769" fill="#96D94E"/>
<rect x="0.224106" y="19.1472" width="5.30769" height="5.30769" fill="#96D94E"/>
<rect x="5.5318" y="13.8395" width="5.30769" height="5.30769" fill="#00A332"/>
<rect x="5.5318" y="8.53178" width="5.30769" height="5.30769" fill="#00A332"/>
<rect x="5.5318" y="19.1472" width="5.30769" height="5.30769" fill="#96D94E"/>
<rect x="5.5318" y="24.4549" width="5.30769" height="5.30769" fill="#96D94E"/>
<rect x="10.8395" y="13.8395" width="5.30769" height="5.30769" fill="#00A332"/>
<rect x="10.8395" y="8.53178" width="5.30769" height="5.30769" fill="#00A332"/>
<rect x="10.8395" y="3.22411" width="5.30769" height="5.30769" fill="#00A332"/>
<rect x="10.8395" y="19.1472" width="5.30769" height="5.30769" fill="#96D94E"/>
<rect x="10.8395" y="24.4549" width="5.30769" height="5.30769" fill="#96D94E"/>
<rect x="10.8395" y="29.7626" width="5.30769" height="5.30769" fill="#96D94E"/>
<rect x="16.1472" y="13.8395" width="5.30769" height="5.30769" fill="#00A332"/>
<rect x="16.1472" y="8.53178" width="5.30769" height="5.30769" fill="#00A332"/>
<rect x="16.1472" y="3.22411" width="5.30769" height="5.30769" fill="#00A332"/>
<rect x="16.1472" y="19.1472" width="5.30769" height="5.30769" fill="#00A332"/>
<rect x="16.1472" y="24.4549" width="5.30769" height="5.30769" fill="#96D94E"/>
<rect x="16.1472" y="29.7626" width="5.30769" height="5.30769" fill="#96D94E"/>
<rect x="16.1472" y="35.0703" width="5.30769" height="5.30769" fill="#96D94E"/>
<rect x="16.1472" y="40.378" width="5.30769" height="5.30769" fill="#FFC000"/>
<rect x="10.8395" y="40.378" width="5.30769" height="5.30769" fill="#FFC000"/>
<rect x="16.1472" y="45.6856" width="5.30769" height="5.30769" fill="#FF7337"/>
<rect x="10.8395" y="45.6856" width="5.30769" height="5.30769" fill="#FFC000"/>
<rect x="5.5318" y="45.6856" width="5.30769" height="5.30769" fill="#FFC000"/>
<rect x="16.1472" y="50.9933" width="5.30769" height="5.3077" fill="#FF7337"/>
<rect x="16.1472" y="56.301" width="5.30769" height="5.30769" fill="#FF7337"/>
<rect x="16.1472" y="61.6087" width="5.30769" height="5.30769" fill="#FF7337"/>
<rect x="10.8395" y="50.9933" width="5.30769" height="5.3077" fill="#FFC000"/>
<rect x="10.8395" y="56.301" width="5.30769" height="5.30769" fill="#FF7337"/>
<rect x="10.8395" y="61.6087" width="5.30769" height="5.30769" fill="#FF7337"/>
<rect x="5.5318" y="50.9933" width="5.30769" height="5.3077" fill="#FFC000"/>
<rect x="0.224106" y="50.9933" width="5.30769" height="5.3077" fill="#FFC000"/>
<rect x="5.5318" y="56.301" width="5.30769" height="5.30769" fill="#FFC000"/>
<rect x="21.4549" y="13.8395" width="5.30769" height="5.30769" fill="#00A332"/>
<rect x="26.7626" y="13.8395" width="5.30769" height="5.30769" fill="#00A332"/>
<rect x="21.4549" y="8.53178" width="5.30769" height="5.30769" fill="#00A332"/>
<rect x="21.4549" y="19.1472" width="5.30769" height="5.30769" fill="#00A332"/>
<rect x="26.7626" y="19.1472" width="5.30769" height="5.30769" fill="#00A332"/>
<rect x="32.0703" y="19.1472" width="5.30769" height="5.30769" fill="#00A332"/>
<rect x="42.6856" y="19.1472" width="5.30769" height="5.30769" fill="#FF7EA9"/>
<rect x="47.9933" y="19.1472" width="5.3077" height="5.30769" fill="#FF7EA9"/>
<rect x="53.301" y="19.1472" width="5.30769" height="5.30769" fill="#EF2500"/>
<rect x="58.6087" y="19.1472" width="5.30769" height="5.30769" fill="#EF2500"/>
<rect x="47.9933" y="24.4549" width="5.3077" height="5.30769" fill="#FF7EA9"/>
<rect x="53.301" y="24.4549" width="5.30769" height="5.30769" fill="#EF2500"/>
<rect x="42.6856" y="13.8395" width="5.30769" height="5.30769" fill="#FF7EA9"/>
<rect x="42.6856" y="8.53178" width="5.30769" height="5.30769" fill="#FF7EA9"/>
<rect x="47.9933" y="8.53178" width="5.3077" height="5.30769" fill="#FF7EA9"/>
<rect x="47.9933" y="3.22411" width="5.3077" height="5.30769" fill="#FF7EA9"/>
<rect x="53.301" y="3.22411" width="5.30769" height="5.30769" fill="#EF2500"/>
<rect x="53.301" y="8.53178" width="5.30769" height="5.30769" fill="#EF2500"/>
<rect x="58.6087" y="8.53178" width="5.30769" height="5.30769" fill="#EF2500"/>
<rect x="47.9933" y="13.8395" width="5.3077" height="5.30769" fill="#FF7EA9"/>
<rect x="53.301" y="13.8395" width="5.30769" height="5.30769" fill="#EF2500"/>
<rect x="58.6087" y="13.8395" width="5.30769" height="5.30769" fill="#EF2500"/>
<rect x="63.9164" y="13.8395" width="5.30769" height="5.30769" fill="#EF2500"/>
<rect x="37.378" y="13.8395" width="5.30769" height="5.30769" fill="#FF7EA9"/>
<rect x="21.4549" y="24.4549" width="5.30769" height="5.30769" fill="#00A332"/>
<rect x="26.7626" y="24.4549" width="5.30769" height="5.30769" fill="#00A332"/>
<rect x="32.0703" y="24.4549" width="5.30769" height="5.30769" fill="#00A332"/>
<rect x="37.378" y="24.4549" width="5.30769" height="5.30769" fill="#00A332"/>
<rect x="21.4549" y="29.7626" width="5.30769" height="5.30769" fill="#96D94E"/>
<rect x="26.7626" y="29.7626" width="5.30769" height="5.30769" fill="#00A332"/>
<rect x="32.0703" y="29.7626" width="5.30769" height="5.30769" fill="#00A332"/>
<rect x="37.378" y="29.7626" width="5.30769" height="5.30769" fill="#00A332"/>
<rect x="42.6856" y="29.7626" width="5.30769" height="5.30769" fill="#00A332"/>
<rect x="21.4549" y="35.0703" width="5.30769" height="5.30769" fill="#96D94E"/>
<rect x="21.4549" y="40.378" width="5.30769" height="5.30769" fill="#FF7337"/>
<rect x="21.4549" y="45.6856" width="5.30769" height="5.30769" fill="#FF7337"/>
<rect x="21.4549" y="50.9933" width="5.30769" height="5.3077" fill="#FF7337"/>
<rect x="21.4549" y="56.301" width="5.30769" height="5.30769" fill="#FF7337"/>
<rect x="26.7626" y="35.0703" width="5.30769" height="5.30769" fill="#96D94E"/>
<rect x="26.7626" y="40.378" width="5.30769" height="5.30769" fill="#FF7337"/>
<rect x="26.7626" y="45.6856" width="5.30769" height="5.30769" fill="#FF7337"/>
<rect x="26.7626" y="50.9933" width="5.30769" height="5.3077" fill="#FF7337"/>
<rect x="32.0703" y="35.0703" width="5.30769" height="5.30769" fill="#00A332"/>
<rect x="32.0703" y="40.378" width="5.30769" height="5.30769" fill="#FF7337"/>
<rect x="32.0703" y="45.6856" width="5.30769" height="5.30769" fill="#FF7337"/>
<rect x="37.378" y="35.0703" width="5.30769" height="5.30769" fill="#00A332"/>
<rect x="37.378" y="40.378" width="5.30769" height="5.30769" fill="#FF7337"/>
<rect x="47.9933" y="40.378" width="5.3077" height="5.30769" fill="#00C1FF"/>
<rect x="53.301" y="40.378" width="5.30769" height="5.30769" fill="#00C1FF"/>
<rect x="47.9933" y="45.6856" width="5.3077" height="5.30769" fill="#00C1FF"/>
<rect x="53.301" y="45.6856" width="5.30769" height="5.30769" fill="#00C1FF"/>
<rect x="58.6087" y="45.6856" width="5.30769" height="5.30769" fill="#00C1FF"/>
<rect x="42.6856" y="45.6856" width="5.30769" height="5.30769" fill="#00C1FF"/>
<rect x="47.9933" y="50.9933" width="5.3077" height="5.3077" fill="#00C1FF"/>
<rect x="53.301" y="50.9933" width="5.30769" height="5.3077" fill="#00C1FF"/>
<rect x="58.6087" y="50.9933" width="5.30769" height="5.3077" fill="#00C1FF"/>
<rect x="63.9164" y="50.9933" width="5.30769" height="5.3077" fill="#00C1FF"/>
<rect x="42.6856" y="50.9933" width="5.30769" height="5.3077" fill="#00C1FF"/>
<rect x="37.378" y="50.9933" width="5.30769" height="5.3077" fill="#00C1FF"/>
<rect x="47.9933" y="56.301" width="5.3077" height="5.30769" fill="#0058FF"/>
<rect x="47.9933" y="61.6087" width="5.3077" height="5.30769" fill="#0058FF"/>
<rect x="53.301" y="61.6087" width="5.30769" height="5.30769" fill="#0058FF"/>
<rect x="53.301" y="56.301" width="5.30769" height="5.30769" fill="#0058FF"/>
<rect x="58.6087" y="56.301" width="5.30769" height="5.30769" fill="#0058FF"/>
<rect x="42.6856" y="56.301" width="5.30769" height="5.30769" fill="#0058FF"/>
<rect x="42.6856" y="35.0703" width="5.30769" height="5.30769" fill="#00A332"/>
</svg>
