<svg width="130" height="114" viewBox="0 0 130 114" fill="none" xmlns="http://www.w3.org/2000/svg">
<rect x="30.9058" y="10.7963" width="5.22241" height="5.22241" fill="#96D94E"/>
<rect x="30.9058" y="16.0187" width="5.22241" height="5.22241" fill="#96D94E"/>
<rect x="36.1282" y="10.7963" width="5.22241" height="5.22241" fill="#00A332"/>
<rect x="36.1282" y="5.57385" width="5.22241" height="5.22241" fill="#00A332"/>
<rect x="36.1282" y="16.0187" width="5.22241" height="5.22241" fill="#96D94E"/>
<rect x="36.1282" y="21.2411" width="5.22241" height="5.22241" fill="#96D94E"/>
<rect x="41.3506" y="10.7963" width="5.22241" height="5.22241" fill="#00A332"/>
<rect x="41.3506" y="5.57385" width="5.22241" height="5.22241" fill="#00A332"/>
<rect x="41.3506" y="0.35144" width="5.22241" height="5.22241" fill="#00A332"/>
<rect x="41.3506" y="16.0187" width="5.22241" height="5.22241" fill="#96D94E"/>
<rect x="41.3506" y="21.2411" width="5.22241" height="5.22241" fill="#96D94E"/>
<rect x="41.3506" y="26.4635" width="5.22241" height="5.22241" fill="#96D94E"/>
<rect x="46.573" y="10.7963" width="5.22241" height="5.22241" fill="#00A332"/>
<rect x="46.573" y="5.57385" width="5.22241" height="5.22241" fill="#00A332"/>
<rect x="46.573" y="0.35144" width="5.22241" height="5.22241" fill="#00A332"/>
<rect x="46.573" y="16.0187" width="5.22241" height="5.22241" fill="#00A332"/>
<rect x="46.573" y="21.2411" width="5.22241" height="5.22241" fill="#96D94E"/>
<rect x="46.573" y="26.4635" width="5.22241" height="5.22241" fill="#96D94E"/>
<rect x="46.573" y="31.6859" width="5.22241" height="5.22241" fill="#96D94E"/>
<rect x="46.573" y="36.9083" width="5.22241" height="5.22241" fill="#FFC000"/>
<rect x="41.3506" y="36.9083" width="5.22241" height="5.22241" fill="#FFC000"/>
<rect x="46.573" y="42.1307" width="5.22241" height="5.22241" fill="#FF7337"/>
<rect x="41.3506" y="42.1307" width="5.22241" height="5.22241" fill="#FFC000"/>
<rect x="36.1282" y="42.1307" width="5.22241" height="5.22241" fill="#FFC000"/>
<rect x="46.573" y="47.3531" width="5.22241" height="5.22241" fill="#FF7337"/>
<rect x="46.573" y="52.5756" width="5.22241" height="5.22241" fill="#FF7337"/>
<rect x="46.573" y="57.798" width="5.22241" height="5.22241" fill="#FF7337"/>
<rect x="41.3506" y="47.3531" width="5.22241" height="5.22241" fill="#FFC000"/>
<rect x="41.3506" y="52.5756" width="5.22241" height="5.22241" fill="#FF7337"/>
<rect x="41.3506" y="57.798" width="5.22241" height="5.22241" fill="#FF7337"/>
<rect x="36.1282" y="47.3531" width="5.22241" height="5.22241" fill="#FFC000"/>
<rect x="30.9058" y="47.3531" width="5.22241" height="5.22241" fill="#FFC000"/>
<rect x="36.1282" y="52.5756" width="5.22241" height="5.22241" fill="#FFC000"/>
<rect x="51.7954" y="10.7963" width="5.22241" height="5.22241" fill="#00A332"/>
<rect x="57.0178" y="10.7963" width="5.22241" height="5.22241" fill="#00A332"/>
<rect x="51.7954" y="5.57385" width="5.22241" height="5.22241" fill="#00A332"/>
<rect x="51.7954" y="16.0187" width="5.22241" height="5.22241" fill="#00A332"/>
<rect x="57.0178" y="16.0187" width="5.22241" height="5.22241" fill="#00A332"/>
<rect x="62.2402" y="16.0187" width="5.22241" height="5.22241" fill="#00A332"/>
<rect x="72.6851" y="16.0187" width="5.22241" height="5.22241" fill="#FF7EA9"/>
<rect x="77.9075" y="16.0187" width="5.22241" height="5.22241" fill="#FF7EA9"/>
<rect x="83.1299" y="16.0187" width="5.22241" height="5.22241" fill="#EF2500"/>
<rect x="88.3523" y="16.0187" width="5.22241" height="5.22241" fill="#EF2500"/>
<rect x="77.9075" y="21.2411" width="5.22241" height="5.22241" fill="#FF7EA9"/>
<rect x="83.1299" y="21.2411" width="5.22241" height="5.22241" fill="#EF2500"/>
<rect x="72.6851" y="10.7963" width="5.22241" height="5.22241" fill="#FF7EA9"/>
<rect x="72.6851" y="5.57385" width="5.22241" height="5.22241" fill="#FF7EA9"/>
<rect x="77.9075" y="5.57385" width="5.22241" height="5.22241" fill="#FF7EA9"/>
<rect x="77.9075" y="0.35144" width="5.22241" height="5.22241" fill="#FF7EA9"/>
<rect x="83.1299" y="0.35144" width="5.22241" height="5.22241" fill="#EF2500"/>
<rect x="83.1299" y="5.57385" width="5.22241" height="5.22241" fill="#EF2500"/>
<rect x="88.3523" y="5.57385" width="5.22241" height="5.22241" fill="#EF2500"/>
<rect x="77.9075" y="10.7963" width="5.22241" height="5.22241" fill="#FF7EA9"/>
<rect x="83.1299" y="10.7963" width="5.22241" height="5.22241" fill="#EF2500"/>
<rect x="88.3523" y="10.7963" width="5.22241" height="5.22241" fill="#EF2500"/>
<rect x="93.5747" y="10.7963" width="5.22241" height="5.22241" fill="#EF2500"/>
<rect x="67.4626" y="10.7963" width="5.22241" height="5.22241" fill="#FF7EA9"/>
<rect x="51.7954" y="21.2411" width="5.22241" height="5.22241" fill="#00A332"/>
<rect x="57.0178" y="21.2411" width="5.22241" height="5.22241" fill="#00A332"/>
<rect x="62.2402" y="21.2411" width="5.22241" height="5.22241" fill="#00A332"/>
<rect x="67.4626" y="21.2411" width="5.22241" height="5.22241" fill="#00A332"/>
<rect x="51.7954" y="26.4635" width="5.22241" height="5.22241" fill="#96D94E"/>
<rect x="57.0178" y="26.4635" width="5.22241" height="5.22241" fill="#00A332"/>
<rect x="62.2402" y="26.4635" width="5.22241" height="5.22241" fill="#00A332"/>
<rect x="67.4626" y="26.4635" width="5.22241" height="5.22241" fill="#00A332"/>
<rect x="72.6851" y="26.4635" width="5.22241" height="5.22241" fill="#00A332"/>
<rect x="51.7954" y="31.6859" width="5.22241" height="5.22241" fill="#96D94E"/>
<rect x="51.7954" y="36.9083" width="5.22241" height="5.22241" fill="#FF7337"/>
<rect x="51.7954" y="42.1307" width="5.22241" height="5.22241" fill="#FF7337"/>
<rect x="51.7954" y="47.3531" width="5.22241" height="5.22241" fill="#FF7337"/>
<rect x="51.7954" y="52.5756" width="5.22241" height="5.22241" fill="#FF7337"/>
<rect x="57.0178" y="31.6859" width="5.22241" height="5.22241" fill="#96D94E"/>
<rect x="57.0178" y="36.9083" width="5.22241" height="5.22241" fill="#FF7337"/>
<rect x="57.0178" y="42.1307" width="5.22241" height="5.22241" fill="#FF7337"/>
<rect x="57.0178" y="47.3531" width="5.22241" height="5.22241" fill="#FF7337"/>
<rect x="62.2402" y="31.6859" width="5.22241" height="5.22241" fill="#00A332"/>
<rect x="62.2402" y="36.9083" width="5.22241" height="5.22241" fill="#FF7337"/>
<rect x="62.2402" y="42.1307" width="5.22241" height="5.22241" fill="#FF7337"/>
<rect x="67.4626" y="31.6859" width="5.22241" height="5.22241" fill="#00A332"/>
<rect x="67.4626" y="36.9083" width="5.22241" height="5.22241" fill="#FF7337"/>
<rect x="77.9075" y="36.9083" width="5.22241" height="5.22241" fill="#00C1FF"/>
<rect x="83.1299" y="36.9083" width="5.22241" height="5.22241" fill="#00C1FF"/>
<rect x="77.9075" y="42.1307" width="5.22241" height="5.22241" fill="#00C1FF"/>
<rect x="83.1299" y="42.1307" width="5.22241" height="5.22241" fill="#00C1FF"/>
<rect x="88.3523" y="42.1307" width="5.22241" height="5.22241" fill="#00C1FF"/>
<rect x="72.6851" y="42.1307" width="5.22241" height="5.22241" fill="#00C1FF"/>
<rect x="77.9075" y="47.3531" width="5.22241" height="5.22241" fill="#00C1FF"/>
<rect x="83.1299" y="47.3531" width="5.22241" height="5.22241" fill="#00C1FF"/>
<rect x="88.3523" y="47.3531" width="5.22241" height="5.22241" fill="#00C1FF"/>
<rect x="93.5747" y="47.3531" width="5.22241" height="5.22241" fill="#00C1FF"/>
<rect x="72.6851" y="47.3531" width="5.22241" height="5.22241" fill="#00C1FF"/>
<rect x="67.4626" y="47.3531" width="5.22241" height="5.22241" fill="#00C1FF"/>
<rect x="77.9075" y="52.5756" width="5.22241" height="5.22241" fill="#0058FF"/>
<rect x="77.9075" y="57.798" width="5.22241" height="5.22241" fill="#0058FF"/>
<rect x="83.1299" y="57.798" width="5.22241" height="5.22241" fill="#0058FF"/>
<rect x="83.1299" y="52.5756" width="5.22241" height="5.22241" fill="#0058FF"/>
<rect x="88.3523" y="52.5756" width="5.22241" height="5.22241" fill="#0058FF"/>
<rect x="72.6851" y="52.5756" width="5.22241" height="5.22241" fill="#0058FF"/>
<rect x="72.6851" y="31.6859" width="5.22241" height="5.22241" fill="#00A332"/>
<rect x="0.224106" y="107.411" width="5.87521" height="5.87521" fill="white"/>
<rect x="105.978" y="107.411" width="5.87521" height="5.87521" fill="white"/>
<rect x="17.8497" y="107.411" width="5.87521" height="5.87521" fill="white"/>
<rect x="123.604" y="107.411" width="5.87521" height="5.87521" fill="white"/>
<rect x="0.224106" y="101.536" width="5.87521" height="5.87521" fill="white"/>
<rect x="105.978" y="101.536" width="5.87521" height="5.87521" fill="white"/>
<rect x="17.8497" y="101.536" width="5.87521" height="5.87521" fill="white"/>
<rect x="123.604" y="101.536" width="5.87521" height="5.87521" fill="white"/>
<rect x="0.224106" y="95.6605" width="5.87521" height="5.87521" fill="white"/>
<rect x="105.978" y="95.6605" width="5.87521" height="5.87521" fill="white"/>
<rect x="17.8497" y="95.6605" width="5.87521" height="5.87521" fill="white"/>
<rect x="123.604" y="95.6605" width="5.87521" height="5.87521" fill="white"/>
<rect x="11.9745" y="95.6605" width="5.87521" height="5.87521" fill="white"/>
<rect x="117.728" y="95.6605" width="5.87521" height="5.87521" fill="white"/>
<rect x="0.224106" y="89.7852" width="5.87521" height="5.87521" fill="white"/>
<rect x="105.978" y="89.7852" width="5.87521" height="5.87521" fill="white"/>
<rect x="17.8497" y="89.7852" width="5.87521" height="5.87521" fill="white"/>
<rect x="123.604" y="89.7852" width="5.87521" height="5.87521" fill="white"/>
<rect x="6.09932" y="89.7852" width="5.87521" height="5.87521" fill="white"/>
<rect x="111.853" y="89.7852" width="5.87521" height="5.87521" fill="white"/>
<rect x="0.224106" y="83.91" width="5.87521" height="5.87521" fill="white"/>
<rect x="105.978" y="83.91" width="5.87521" height="5.87521" fill="white"/>
<rect x="17.8497" y="83.91" width="5.87521" height="5.87521" fill="white"/>
<rect x="123.604" y="83.91" width="5.87521" height="5.87521" fill="white"/>
<rect x="29.6002" y="83.91" width="5.87521" height="5.87521" fill="white"/>
<rect x="35.4754" y="83.91" width="5.87521" height="5.87521" fill="white"/>
<rect x="35.4754" y="89.7852" width="5.87521" height="5.87521" fill="white"/>
<rect x="35.4754" y="95.6605" width="5.87521" height="5.87521" fill="white"/>
<rect x="35.4754" y="101.536" width="5.87521" height="5.87521" fill="white"/>
<rect x="35.4754" y="107.411" width="5.87521" height="5.87521" fill="white"/>
<rect x="41.3506" y="83.91" width="5.87521" height="5.87521" fill="white"/>
<rect x="53.101" y="83.91" width="5.87521" height="5.87521" fill="white"/>
<rect x="53.101" y="89.7852" width="5.87521" height="5.87521" fill="white"/>
<rect x="53.101" y="95.6605" width="5.87521" height="5.87521" fill="white"/>
<rect x="53.101" y="101.536" width="5.87521" height="5.87521" fill="white"/>
<rect x="53.101" y="107.411" width="5.87521" height="5.87521" fill="white"/>
<rect x="58.9762" y="107.411" width="5.87521" height="5.87521" fill="white"/>
<rect x="64.8514" y="107.411" width="5.87521" height="5.87521" fill="white"/>
<rect x="64.8514" y="107.411" width="5.87521" height="5.87521" fill="white"/>
<rect x="76.6019" y="107.411" width="5.87521" height="5.87521" fill="white"/>
<rect x="76.6019" y="101.536" width="5.87521" height="5.87521" fill="white"/>
<rect x="76.6019" y="95.6605" width="5.87521" height="5.87521" fill="white"/>
<rect x="82.4771" y="95.6605" width="5.87521" height="5.87521" fill="white"/>
<rect x="88.3523" y="95.6605" width="5.87521" height="5.87521" fill="white"/>
<rect x="94.2275" y="95.6605" width="5.87521" height="5.87521" fill="white"/>
<rect x="94.2275" y="101.536" width="5.87521" height="5.87521" fill="white"/>
<rect x="94.2275" y="107.411" width="5.87521" height="5.87521" fill="white"/>
<rect x="94.2275" y="89.7852" width="5.87521" height="5.87521" fill="white"/>
<rect x="76.6019" y="89.7852" width="5.87521" height="5.87521" fill="white"/>
<rect x="82.4771" y="83.91" width="5.87521" height="5.87521" fill="white"/>
<rect x="88.3523" y="83.91" width="5.87521" height="5.87521" fill="white"/>
</svg>
