<svg width="130" height="114" viewBox="0 0 130 114" fill="none" xmlns="http://www.w3.org/2000/svg">
<rect x="30.9058" y="11.1138" width="5.22241" height="5.22241" fill="black" fill-opacity="0.55"/>
<rect x="30.9058" y="16.3362" width="5.22241" height="5.22241" fill="black" fill-opacity="0.55"/>
<rect x="36.1282" y="11.1138" width="5.22241" height="5.22241" fill="black"/>
<rect x="36.1282" y="5.89136" width="5.22241" height="5.22241" fill="black"/>
<rect x="36.1282" y="16.3362" width="5.22241" height="5.22241" fill="black" fill-opacity="0.55"/>
<rect x="36.1282" y="21.5586" width="5.22241" height="5.22241" fill="black" fill-opacity="0.55"/>
<rect x="41.3506" y="11.1138" width="5.22241" height="5.22241" fill="black"/>
<rect x="41.3506" y="5.89136" width="5.22241" height="5.22241" fill="black"/>
<rect x="41.3506" y="0.668945" width="5.22241" height="5.22241" fill="black"/>
<rect x="41.3506" y="16.3362" width="5.22241" height="5.22241" fill="black" fill-opacity="0.55"/>
<rect x="41.3506" y="21.5586" width="5.22241" height="5.22241" fill="black" fill-opacity="0.55"/>
<rect x="41.3506" y="26.781" width="5.22241" height="5.22241" fill="black" fill-opacity="0.55"/>
<rect x="46.573" y="11.1138" width="5.22241" height="5.22241" fill="black"/>
<rect x="46.573" y="5.89136" width="5.22241" height="5.22241" fill="black"/>
<rect x="46.573" y="0.668945" width="5.22241" height="5.22241" fill="black"/>
<rect x="46.573" y="16.3362" width="5.22241" height="5.22241" fill="black"/>
<rect x="46.573" y="21.5586" width="5.22241" height="5.22241" fill="black" fill-opacity="0.55"/>
<rect x="46.573" y="26.781" width="5.22241" height="5.22241" fill="black" fill-opacity="0.55"/>
<rect x="46.573" y="32.0034" width="5.22241" height="5.22241" fill="black" fill-opacity="0.55"/>
<rect x="46.573" y="37.2258" width="5.22241" height="5.22241" fill="black" fill-opacity="0.55"/>
<rect x="41.3506" y="37.2258" width="5.22241" height="5.22241" fill="black" fill-opacity="0.55"/>
<rect x="46.573" y="42.4482" width="5.22241" height="5.22241" fill="black"/>
<rect x="41.3506" y="42.4482" width="5.22241" height="5.22241" fill="black" fill-opacity="0.55"/>
<rect x="36.1282" y="42.4482" width="5.22241" height="5.22241" fill="black" fill-opacity="0.55"/>
<rect x="46.573" y="47.6707" width="5.22241" height="5.22241" fill="black"/>
<rect x="46.573" y="52.8931" width="5.22241" height="5.22241" fill="black"/>
<rect x="46.573" y="58.1155" width="5.22241" height="5.22241" fill="black"/>
<rect x="41.3506" y="47.6707" width="5.22241" height="5.22241" fill="black" fill-opacity="0.55"/>
<rect x="41.3506" y="52.8931" width="5.22241" height="5.22241" fill="black"/>
<rect x="41.3506" y="58.1155" width="5.22241" height="5.22241" fill="black"/>
<rect x="36.1282" y="47.6707" width="5.22241" height="5.22241" fill="black" fill-opacity="0.55"/>
<rect x="30.9058" y="47.6707" width="5.22241" height="5.22241" fill="black" fill-opacity="0.55"/>
<rect x="36.1282" y="52.8931" width="5.22241" height="5.22241" fill="black" fill-opacity="0.55"/>
<rect x="51.7954" y="11.1138" width="5.22241" height="5.22241" fill="black"/>
<rect x="57.0178" y="11.1138" width="5.22241" height="5.22241" fill="black"/>
<rect x="51.7954" y="5.89136" width="5.22241" height="5.22241" fill="black"/>
<rect x="51.7954" y="16.3362" width="5.22241" height="5.22241" fill="black"/>
<rect x="57.0178" y="16.3362" width="5.22241" height="5.22241" fill="black"/>
<rect x="62.2402" y="16.3362" width="5.22241" height="5.22241" fill="black"/>
<rect x="72.6851" y="16.3362" width="5.22241" height="5.22241" fill="black" fill-opacity="0.55"/>
<rect x="77.9075" y="16.3362" width="5.22241" height="5.22241" fill="black" fill-opacity="0.55"/>
<rect x="83.1299" y="16.3362" width="5.22241" height="5.22241" fill="black"/>
<rect x="88.3523" y="16.3362" width="5.22241" height="5.22241" fill="black"/>
<rect x="77.9075" y="21.5586" width="5.22241" height="5.22241" fill="black" fill-opacity="0.55"/>
<rect x="83.1299" y="21.5586" width="5.22241" height="5.22241" fill="black"/>
<rect x="72.6851" y="11.1138" width="5.22241" height="5.22241" fill="black" fill-opacity="0.55"/>
<rect x="72.6851" y="5.89136" width="5.22241" height="5.22241" fill="black" fill-opacity="0.55"/>
<rect x="77.9075" y="5.89136" width="5.22241" height="5.22241" fill="black" fill-opacity="0.55"/>
<rect x="77.9075" y="0.668945" width="5.22241" height="5.22241" fill="black" fill-opacity="0.55"/>
<rect x="83.1299" y="0.668945" width="5.22241" height="5.22241" fill="black"/>
<rect x="83.1299" y="5.89136" width="5.22241" height="5.22241" fill="black"/>
<rect x="88.3523" y="5.89136" width="5.22241" height="5.22241" fill="black"/>
<rect x="77.9075" y="11.1138" width="5.22241" height="5.22241" fill="black" fill-opacity="0.55"/>
<rect x="83.1299" y="11.1138" width="5.22241" height="5.22241" fill="black"/>
<rect x="88.3523" y="11.1138" width="5.22241" height="5.22241" fill="black"/>
<rect x="93.5747" y="11.1138" width="5.22241" height="5.22241" fill="black"/>
<rect x="67.4626" y="11.1138" width="5.22241" height="5.22241" fill="black" fill-opacity="0.55"/>
<rect x="51.7954" y="21.5586" width="5.22241" height="5.22241" fill="black"/>
<rect x="57.0178" y="21.5586" width="5.22241" height="5.22241" fill="black"/>
<rect x="62.2402" y="21.5586" width="5.22241" height="5.22241" fill="black"/>
<rect x="67.4626" y="21.5586" width="5.22241" height="5.22241" fill="black"/>
<rect x="51.7954" y="26.781" width="5.22241" height="5.22241" fill="black" fill-opacity="0.55"/>
<rect x="57.0178" y="26.781" width="5.22241" height="5.22241" fill="black"/>
<rect x="62.2402" y="26.781" width="5.22241" height="5.22241" fill="black"/>
<rect x="67.4626" y="26.781" width="5.22241" height="5.22241" fill="black"/>
<rect x="72.6851" y="26.781" width="5.22241" height="5.22241" fill="black"/>
<rect x="51.7954" y="32.0034" width="5.22241" height="5.22241" fill="black" fill-opacity="0.55"/>
<rect x="51.7954" y="37.2258" width="5.22241" height="5.22241" fill="black"/>
<rect x="51.7954" y="42.4482" width="5.22241" height="5.22241" fill="black"/>
<rect x="51.7954" y="47.6707" width="5.22241" height="5.22241" fill="black"/>
<rect x="51.7954" y="52.8931" width="5.22241" height="5.22241" fill="black"/>
<rect x="57.0178" y="32.0034" width="5.22241" height="5.22241" fill="black" fill-opacity="0.55"/>
<rect x="57.0178" y="37.2258" width="5.22241" height="5.22241" fill="black"/>
<rect x="57.0178" y="42.4482" width="5.22241" height="5.22241" fill="black"/>
<rect x="57.0178" y="47.6707" width="5.22241" height="5.22241" fill="black"/>
<rect x="62.2402" y="32.0034" width="5.22241" height="5.22241" fill="black"/>
<rect x="62.2402" y="37.2258" width="5.22241" height="5.22241" fill="black"/>
<rect x="62.2402" y="42.4482" width="5.22241" height="5.22241" fill="black"/>
<rect x="67.4626" y="32.0034" width="5.22241" height="5.22241" fill="black"/>
<rect x="67.4626" y="37.2258" width="5.22241" height="5.22241" fill="black"/>
<rect x="77.9075" y="37.2258" width="5.22241" height="5.22241" fill="black" fill-opacity="0.55"/>
<rect x="83.1299" y="37.2258" width="5.22241" height="5.22241" fill="black" fill-opacity="0.55"/>
<rect x="77.9075" y="42.4482" width="5.22241" height="5.22241" fill="black" fill-opacity="0.55"/>
<rect x="83.1299" y="42.4482" width="5.22241" height="5.22241" fill="black" fill-opacity="0.55"/>
<rect x="88.3523" y="42.4482" width="5.22241" height="5.22241" fill="black" fill-opacity="0.55"/>
<rect x="72.6851" y="42.4482" width="5.22241" height="5.22241" fill="black" fill-opacity="0.55"/>
<rect x="77.9075" y="47.6707" width="5.22241" height="5.22241" fill="black" fill-opacity="0.55"/>
<rect x="83.1299" y="47.6707" width="5.22241" height="5.22241" fill="black" fill-opacity="0.55"/>
<rect x="88.3523" y="47.6707" width="5.22241" height="5.22241" fill="black" fill-opacity="0.55"/>
<rect x="93.5747" y="47.6707" width="5.22241" height="5.22241" fill="black" fill-opacity="0.55"/>
<rect x="72.6851" y="47.6707" width="5.22241" height="5.22241" fill="black" fill-opacity="0.55"/>
<rect x="67.4626" y="47.6707" width="5.22241" height="5.22241" fill="black" fill-opacity="0.55"/>
<rect x="77.9075" y="52.8931" width="5.22241" height="5.22241" fill="black"/>
<rect x="77.9075" y="58.1155" width="5.22241" height="5.22241" fill="black"/>
<rect x="83.1299" y="58.1155" width="5.22241" height="5.22241" fill="black"/>
<rect x="83.1299" y="52.8931" width="5.22241" height="5.22241" fill="black"/>
<rect x="88.3523" y="52.8931" width="5.22241" height="5.22241" fill="black"/>
<rect x="72.6851" y="52.8931" width="5.22241" height="5.22241" fill="black"/>
<rect x="72.6851" y="32.0034" width="5.22241" height="5.22241" fill="black"/>
<rect x="0.224106" y="107.728" width="5.87521" height="5.87521" fill="black"/>
<rect x="105.978" y="107.728" width="5.87521" height="5.87521" fill="black"/>
<rect x="17.8497" y="107.728" width="5.87521" height="5.87521" fill="black"/>
<rect x="123.604" y="107.728" width="5.87521" height="5.87521" fill="black"/>
<rect x="0.224106" y="101.853" width="5.87521" height="5.87521" fill="black"/>
<rect x="105.978" y="101.853" width="5.87521" height="5.87521" fill="black"/>
<rect x="17.8497" y="101.853" width="5.87521" height="5.87521" fill="black"/>
<rect x="123.604" y="101.853" width="5.87521" height="5.87521" fill="black"/>
<rect x="0.224106" y="95.9779" width="5.87521" height="5.87521" fill="black"/>
<rect x="105.978" y="95.9779" width="5.87521" height="5.87521" fill="black"/>
<rect x="17.8497" y="95.9779" width="5.87521" height="5.87521" fill="black"/>
<rect x="123.604" y="95.9779" width="5.87521" height="5.87521" fill="black"/>
<rect x="11.9745" y="95.9779" width="5.87521" height="5.87521" fill="black"/>
<rect x="117.728" y="95.9779" width="5.87521" height="5.87521" fill="black"/>
<rect x="0.224106" y="90.1028" width="5.87521" height="5.87521" fill="black"/>
<rect x="105.978" y="90.1028" width="5.87521" height="5.87521" fill="black"/>
<rect x="17.8497" y="90.1028" width="5.87521" height="5.87521" fill="black"/>
<rect x="123.604" y="90.1028" width="5.87521" height="5.87521" fill="black"/>
<rect x="6.09932" y="90.1028" width="5.87521" height="5.87521" fill="black"/>
<rect x="111.853" y="90.1028" width="5.87521" height="5.87521" fill="black"/>
<rect x="0.224106" y="84.2275" width="5.87521" height="5.87521" fill="black"/>
<rect x="105.978" y="84.2275" width="5.87521" height="5.87521" fill="black"/>
<rect x="17.8497" y="84.2275" width="5.87521" height="5.87521" fill="black"/>
<rect x="123.604" y="84.2275" width="5.87521" height="5.87521" fill="black"/>
<rect x="29.6002" y="84.2275" width="5.87521" height="5.87521" fill="black"/>
<rect x="35.4754" y="84.2275" width="5.87521" height="5.87521" fill="black"/>
<rect x="35.4754" y="90.1028" width="5.87521" height="5.87521" fill="black"/>
<rect x="35.4754" y="95.9779" width="5.87521" height="5.87521" fill="black"/>
<rect x="35.4754" y="101.853" width="5.87521" height="5.87521" fill="black"/>
<rect x="35.4754" y="107.728" width="5.87521" height="5.87521" fill="black"/>
<rect x="41.3506" y="84.2275" width="5.87521" height="5.87521" fill="black"/>
<rect x="53.101" y="84.2275" width="5.87521" height="5.87521" fill="black"/>
<rect x="53.101" y="90.1028" width="5.87521" height="5.87521" fill="black"/>
<rect x="53.101" y="95.9779" width="5.87521" height="5.87521" fill="black"/>
<rect x="53.101" y="101.853" width="5.87521" height="5.87521" fill="black"/>
<rect x="53.101" y="107.728" width="5.87521" height="5.87521" fill="black"/>
<rect x="58.9762" y="107.728" width="5.87521" height="5.87521" fill="black"/>
<rect x="64.8514" y="107.728" width="5.87521" height="5.87521" fill="black"/>
<rect x="64.8514" y="107.728" width="5.87521" height="5.87521" fill="black"/>
<rect x="76.6019" y="107.728" width="5.87521" height="5.87521" fill="black"/>
<rect x="76.6019" y="101.853" width="5.87521" height="5.87521" fill="black"/>
<rect x="76.6019" y="95.9779" width="5.87521" height="5.87521" fill="black"/>
<rect x="82.4771" y="95.9779" width="5.87521" height="5.87521" fill="black"/>
<rect x="88.3523" y="95.9779" width="5.87521" height="5.87521" fill="black"/>
<rect x="94.2275" y="95.9779" width="5.87521" height="5.87521" fill="black"/>
<rect x="94.2275" y="101.853" width="5.87521" height="5.87521" fill="black"/>
<rect x="94.2275" y="107.728" width="5.87521" height="5.87521" fill="black"/>
<rect x="94.2275" y="90.1028" width="5.87521" height="5.87521" fill="black"/>
<rect x="76.6019" y="90.1028" width="5.87521" height="5.87521" fill="black"/>
<rect x="82.4771" y="84.2275" width="5.87521" height="5.87521" fill="black"/>
<rect x="88.3523" y="84.2275" width="5.87521" height="5.87521" fill="black"/>
</svg>
