<svg width="22" height="22" viewBox="0 0 22 22" fill="none" xmlns="http://www.w3.org/2000/svg">
<g id="Group">
<path id="shape" fill-rule="evenodd" clip-rule="evenodd" d="M4.49634 0L0 4.49634L6.50403 11.0004L0 17.5033L4.49634 21.9996L15.4967 11.0004L4.49634 0Z" fill="#FFC000"/>
<path id="shape_2" fill-rule="evenodd" clip-rule="evenodd" d="M6.50403 11.0004H15.4967L0 4.49637L6.50403 11.0004Z" fill="#96D94E"/>
<path id="shape_3" fill-rule="evenodd" clip-rule="evenodd" d="M4.49634 0L0 4.49634L15.4967 11.0004L4.49634 0Z" fill="#00A332"/>
<path id="shape_4" fill-rule="evenodd" clip-rule="evenodd" d="M6.50355 11.001L4.49586 22.0003L15.4962 11.001H6.50355Z" fill="#FF7337"/>
<path id="shape_5" fill-rule="evenodd" clip-rule="evenodd" d="M17.5036 0L12.02 5.48364L16.5163 9.97998L22 4.49634L17.5036 0Z" fill="#FF7EA9"/>
<path id="shape_6" fill-rule="evenodd" clip-rule="evenodd" d="M17.5032 0L16.5159 9.97998L21.9995 4.49634L17.5032 0Z" fill="#EF2500"/>
<path id="shape_7" fill-rule="evenodd" clip-rule="evenodd" d="M22 17.5026L16.5163 12.019L12.02 16.5153L22 17.5026Z" fill="#00C1FF"/>
<path id="shape_8" fill-rule="evenodd" clip-rule="evenodd" d="M17.5036 21.999L22 17.5026L12.02 16.5153L17.5036 21.999Z" fill="#0058FF"/>
</g>
</svg>
